<svg width="50" height="50" viewBox="0 0 50 50" fill="none" xmlns="http://www.w3.org/2000/svg">
<path d="M49.5 25.5C49.5 12.2452 38.7548 1.50001 25.5 1.50001C12.2452 1.50001 1.5 12.2452 1.5 25.5C1.5 38.7549 12.2452 49.5 25.5 49.5C38.7548 49.5 49.5 38.7549 49.5 25.5ZM21.064 11.542L29.9361 11.5421C30.2123 11.5421 30.4361 11.7659 30.4361 12.0421L30.4362 19.064C30.4362 19.8924 31.1078 20.564 31.9362 20.564H38.9582C39.2343 20.564 39.4582 20.7878 39.4582 21.064L39.4583 29.9359C39.4583 30.2121 39.2344 30.436 38.9583 30.436L31.9363 30.436C31.1079 30.436 30.4363 31.1076 30.4363 31.936V38.958C30.4363 39.2342 30.2124 39.458 29.9363 39.458L21.064 39.4579C20.7879 39.4579 20.5641 39.2341 20.5641 38.9579L20.564 31.9359C20.564 31.1075 19.8924 30.4359 19.064 30.4359H12.042C11.7658 30.4359 11.542 30.2121 11.542 29.9359L11.5419 21.0641C11.5419 20.7879 11.7658 20.5641 12.0419 20.5641L19.0639 20.564C19.8923 20.564 20.5639 19.8924 20.5639 19.064L20.564 12.042C20.564 11.7659 20.7879 11.542 21.064 11.542Z" stroke="white"/>
</svg>
