<svg width="16" height="16" viewBox="0 0 16 16" fill="none" xmlns="http://www.w3.org/2000/svg">
<path d="M10.9656 10.3818L10.9656 10.3818L13.8007 11.0907C14.3002 11.2154 14.65 11.664 14.65 12.1782V13.0577C14.65 13.5463 14.4559 14.0149 14.1104 14.3604C13.7649 14.7059 13.2963 14.9 12.8077 14.9H11.3654C5.83421 14.9 1.35 10.4158 1.35 4.88462V3.44231C1.35 2.9537 1.5441 2.4851 1.8896 2.1396C2.2351 1.7941 2.7037 1.6 3.19231 1.6H4.07179H4.07193C4.32187 1.60008 4.56462 1.68368 4.76161 1.83752C4.95861 1.99136 5.09854 2.20661 5.1592 2.44909L5.15921 2.44912L5.86813 5.28419L10.9656 10.3818ZM10.9656 10.3818C10.5271 10.2722 10.0666 10.4367 9.79645 10.7975L9.1749 11.626L9.17487 11.626M10.9656 10.3818L9.17487 11.626M9.17487 11.626C9.09053 11.7385 8.9596 11.7717 8.85726 11.7342L9.17487 11.626Z" stroke="#666666" stroke-width="0.8" stroke-linecap="round" stroke-linejoin="round"/>
</svg>
