<svg width="50" height="50" viewBox="0 0 50 50" fill="none" xmlns="http://www.w3.org/2000/svg">
<g clip-path="url(#clip0_15652_22163)">
<path d="M11.8753 9.43599C13.4779 9.43599 14.824 8.08983 14.824 6.48727C14.824 4.8847 13.4779 3.53855 11.8753 3.53855C10.2727 3.53855 8.92658 4.8847 8.92658 6.48727C8.92658 8.08983 10.2727 9.43599 11.8753 9.43599ZM10.2727 30.2693C10.2727 30.718 10.6574 31.1027 11.1061 31.1027C11.5548 31.1027 11.9394 30.718 11.9394 30.2693C11.9394 29.8206 11.5548 29.436 11.1061 29.436C10.6574 29.436 10.2727 29.8206 10.2727 30.2693ZM16.1702 13.1539C16.8753 13.1539 17.3881 12.577 17.3881 11.936C17.3881 11.2309 16.8112 10.718 16.1702 10.718C15.465 10.718 14.9522 11.295 14.9522 11.936C14.9522 12.577 15.465 13.1539 16.1702 13.1539ZM6.49068 24.2437C8.09325 24.2437 9.4394 22.8975 9.4394 21.295C9.4394 19.6924 8.09325 18.3462 6.49068 18.3462C4.88812 18.3462 3.54197 19.6924 3.54197 21.295C3.60607 22.8975 4.88812 24.2437 6.49068 24.2437ZM2.25992 17.3206C2.96504 17.3206 3.47786 16.7437 3.47786 16.1027C3.47786 15.3975 2.90094 14.8847 2.25992 14.8847C1.55479 14.8847 1.04197 15.4616 1.04197 16.1027C1.04197 16.8078 1.55479 17.3206 2.25992 17.3206ZM1.8112 20.0129C1.8112 19.5642 1.42658 19.1796 0.977865 19.1796C0.529147 19.1796 0.144531 19.5642 0.144531 20.0129C0.144531 20.4616 0.529147 20.8462 0.977865 20.8462C1.42658 20.8462 1.8112 20.4616 1.8112 20.0129ZM5.72145 13.0898C6.8753 13.0898 7.77274 12.1924 7.77274 11.0385C7.77274 9.8847 6.8753 8.98727 5.72145 8.98727C4.56761 8.98727 3.67017 9.8847 3.67017 11.0385C3.67017 12.1924 4.56761 13.0898 5.72145 13.0898ZM30.6573 1.80778C31.1061 1.80778 31.4907 1.42316 31.4907 0.974447C31.4907 0.525729 31.1061 0.141113 30.6573 0.141113C30.2086 0.141113 29.824 0.525729 29.824 0.974447C29.824 1.42316 30.2086 1.80778 30.6573 1.80778ZM8.22145 29.9488C8.22145 27.9616 6.61889 26.3591 4.63171 26.3591C2.64453 26.3591 1.04197 27.9616 1.04197 29.9488C1.04197 31.936 2.64453 33.5385 4.63171 33.5385C6.61889 33.5385 8.22145 31.936 8.22145 29.9488ZM44.183 14.8206C45.7856 14.8206 47.1317 13.4744 47.1317 11.8719C47.1317 10.2693 45.7856 8.92317 44.183 8.92317C42.5804 8.92317 41.2343 10.2693 41.2343 11.8719C41.2343 13.4744 42.5163 14.8206 44.183 14.8206ZM37.5804 35.077C37.5804 36.2309 38.4779 37.1283 39.6317 37.1283C40.7856 37.1283 41.683 36.2309 41.683 35.077C41.683 33.9232 40.7856 33.0257 39.6317 33.0257C38.4779 33.0257 37.5804 33.9232 37.5804 35.077ZM39.6317 7.76932C40.7856 7.76932 41.683 6.87188 41.683 5.71804C41.683 4.56419 40.7856 3.66675 39.6317 3.66675C38.4779 3.66675 37.5804 4.56419 37.5804 5.71804C37.5804 6.87188 38.4779 7.76932 39.6317 7.76932ZM35.0804 13.0898C36.2343 13.0898 37.1317 12.1924 37.1317 11.0385C37.1317 9.8847 36.2343 8.98727 35.0804 8.98727C33.9266 8.98727 33.0291 9.8847 33.0291 11.0385C33.0291 12.1924 33.9266 13.0898 35.0804 13.0898ZM42.4522 20.3334C42.4522 22.3206 44.0548 23.9232 46.042 23.9232C48.0291 23.9232 49.6317 22.3206 49.6317 20.3334C49.6317 18.3462 48.0291 16.7437 46.042 16.7437C44.0548 16.7437 42.4522 18.3462 42.4522 20.3334ZM40.4009 20.0129C40.4009 19.5642 40.0163 19.1796 39.5676 19.1796C39.1189 19.1796 38.7343 19.5642 38.7343 20.0129C38.7343 20.4616 39.1189 20.8462 39.5676 20.8462C40.0163 20.8462 40.4009 20.4616 40.4009 20.0129ZM34.5035 3.41034C35.2086 3.41034 35.7215 2.83342 35.7215 2.1924C35.7215 1.55137 35.1445 0.974447 34.5035 0.974447C33.7984 0.974447 33.2856 1.55137 33.2856 2.1924C33.2856 2.83342 33.8625 3.41034 34.5035 3.41034ZM38.3497 17.3206C39.0548 17.3206 39.5676 16.7437 39.5676 16.1027C39.5676 15.3975 38.9907 14.8847 38.3497 14.8847C37.7086 14.8847 37.1317 15.4616 37.1317 16.1027C37.1317 16.8078 37.7086 17.3206 38.3497 17.3206ZM13.0932 15.2052C13.0932 14.0514 12.1958 13.1539 11.042 13.1539C9.88812 13.1539 8.99068 14.0514 8.99068 15.2052C8.99068 16.3591 9.88812 17.2565 11.042 17.2565C12.1958 17.2565 13.0932 16.3591 13.0932 15.2052ZM34.5035 37.1283C33.7984 37.1283 33.2856 37.7052 33.2856 38.3462C33.2856 39.0514 33.8625 39.5642 34.5035 39.5642C35.2086 39.5642 35.7215 38.9873 35.7215 38.3462C35.7215 37.7052 35.2086 37.1283 34.5035 37.1283ZM30.3368 42.0642C28.3497 42.0642 26.7471 43.6668 26.7471 45.6539C26.7471 47.6411 28.3497 49.2437 30.3368 49.2437C32.324 49.2437 33.9266 47.6411 33.9266 45.6539C33.9266 43.6668 32.324 42.0642 30.3368 42.0642ZM38.7984 40.8462C37.1958 40.8462 35.8497 42.1924 35.8497 43.795C35.8497 45.3975 37.1958 46.7437 38.7984 46.7437C40.4009 46.7437 41.7471 45.3975 41.7471 43.795C41.7471 42.1924 40.4009 40.8462 38.7984 40.8462ZM29.824 39.5642C29.824 40.0129 30.2086 40.3975 30.6573 40.3975C31.1061 40.3975 31.4907 40.0129 31.4907 39.5642C31.4907 39.1155 31.1061 38.7309 30.6573 38.7309C30.2086 38.795 29.824 39.1155 29.824 39.5642ZM49.6958 29.436C49.2471 29.436 48.8625 29.8206 48.8625 30.2693C48.8625 30.718 49.2471 31.1027 49.6958 31.1027C50.1445 31.1027 50.5291 30.718 50.5291 30.2693C50.5291 29.8206 50.0804 29.436 49.6958 29.436ZM48.4138 32.9616C47.7086 32.9616 47.1958 33.5385 47.1958 34.1796C47.1958 34.8847 47.7727 35.3975 48.4138 35.3975C49.1189 35.3975 49.6317 34.8206 49.6317 34.1796C49.6317 33.4744 49.1189 32.9616 48.4138 32.9616ZM28.9907 9.43599C30.5932 9.43599 31.9394 8.08983 31.9394 6.48727C31.9394 4.8847 30.5932 3.53855 28.9907 3.53855C27.3881 3.53855 26.042 4.8847 26.042 6.48727C26.042 8.08983 27.3881 9.43599 28.9907 9.43599ZM44.183 26.0386C42.5804 26.0386 41.2343 27.3847 41.2343 28.9873C41.2343 30.5898 42.5804 31.936 44.183 31.936C45.7856 31.936 47.1317 30.5898 47.1317 28.9873C47.0676 27.3847 45.7856 26.0386 44.183 26.0386ZM6.49068 35.4616C4.88812 35.4616 3.54197 36.8078 3.54197 38.4103C3.54197 40.0129 4.88812 41.3591 6.49068 41.3591C8.09325 41.3591 9.4394 40.0129 9.4394 38.4103C9.4394 36.8078 8.15735 35.4616 6.49068 35.4616ZM44.9522 37.1924C43.7984 37.1924 42.9009 38.0898 42.9009 39.2437C42.9009 40.3975 43.7984 41.295 44.9522 41.295C46.1061 41.295 47.0035 40.3975 47.0035 39.2437C47.0035 38.0898 46.1061 37.1924 44.9522 37.1924ZM12.324 32.9616C11.6189 32.9616 11.1061 33.5385 11.1061 34.1796C11.1061 34.8847 11.683 35.3975 12.324 35.3975C12.965 35.3975 13.542 34.8206 13.542 34.1796C13.542 33.4744 12.965 32.9616 12.324 32.9616ZM15.5932 37.1924C14.4394 37.1924 13.542 38.0898 13.542 39.2437C13.542 40.3975 14.4394 41.295 15.5932 41.295C16.7471 41.295 17.6445 40.3975 17.6445 39.2437C17.6445 38.0898 16.7471 37.1924 15.5932 37.1924ZM16.1702 46.8719C15.465 46.8719 14.9522 47.4488 14.9522 48.0898C14.9522 48.7309 15.5291 49.3078 16.1702 49.3078C16.8753 49.3078 17.3881 48.7309 17.3881 48.0898C17.3881 47.4488 16.8112 46.8719 16.1702 46.8719ZM11.042 42.5129C9.88812 42.5129 8.99068 43.4103 8.99068 44.5642C8.99068 45.718 9.88812 46.6155 11.042 46.6155C12.1958 46.6155 13.0932 45.718 13.0932 44.5642C13.0932 43.4103 12.1958 42.5129 11.042 42.5129ZM19.2471 10.718C19.2471 11.1668 19.6317 11.5514 20.0804 11.5514C20.5291 11.5514 20.9138 11.1668 20.9138 10.718C20.9138 10.2693 20.5291 9.8847 20.0804 9.8847C19.5676 9.8847 19.2471 10.2693 19.2471 10.718ZM23.9266 4.56419C23.9266 2.57701 22.324 0.974447 20.3368 0.974447C18.3497 0.974447 16.7471 2.57701 16.7471 4.56419C16.7471 6.55137 18.3497 8.15393 20.3368 8.15393C22.324 8.21804 23.9266 6.61547 23.9266 4.56419ZM20.0163 48.4744C19.5676 48.4744 19.183 48.8591 19.183 49.3078C19.183 49.7565 19.5676 50.1411 20.0163 50.1411C20.465 50.1411 20.8497 49.7565 20.8497 49.3078C20.8497 48.8591 20.465 48.4744 20.0163 48.4744ZM21.683 40.8462C20.0804 40.8462 18.7343 42.1924 18.7343 43.795C18.7343 45.3975 20.0804 46.7437 21.683 46.7437C23.2856 46.7437 24.6317 45.3975 24.6317 43.795C24.6317 42.1924 23.2856 40.8462 21.683 40.8462Z" fill="#FF5106"/>
</g>
<defs>
<clipPath id="clip0_15652_22163">
<rect width="50" height="50" fill="white"/>
</clipPath>
</defs>
</svg>
