<svg width="64" height="64" viewBox="0 0 64 64" fill="none" xmlns="http://www.w3.org/2000/svg">
<path d="M4.53438 49.0547C4.59366 49.2625 4.71742 49.4462 4.8878 49.5792C5.05819 49.7122 5.2664 49.7876 5.48243 49.7947H58.5177C58.7044 49.7898 58.8863 49.7341 59.0438 49.6338C59.2014 49.5334 59.3286 49.3921 59.412 49.2249C62.0008 32.8387 48.5661 17.5681 32.0001 17.7233C15.4609 17.5824 2.15906 32.6915 4.53438 49.0547ZM32.0001 19.7243C38.8199 19.7303 45.3589 22.4412 50.1826 27.2622C55.0062 32.0833 57.7206 38.6209 57.7302 45.4407C57.7302 46.2565 57.6818 47.0362 57.6108 47.7936H6.38935C6.06984 44.2345 6.49417 40.6478 7.63537 37.2615C8.77657 33.8751 10.6097 30.7632 13.0182 28.1235C15.4268 25.4837 18.3581 23.3738 21.6259 21.9278C24.8938 20.4819 28.4266 19.7315 32.0001 19.7243Z" fill="white"/>
<path d="M32.0002 16.8702C38.5027 16.6633 38.5021 7.23339 32.0001 7.02783C25.4968 7.23436 25.4992 16.6643 32.0002 16.8702ZM32.0002 9.02898C32.769 9.03765 33.5033 9.34912 34.0438 9.89581C34.5844 10.4425 34.8876 11.1803 34.8876 11.9491C34.8875 12.7179 34.5844 13.4557 34.0438 14.0024C33.5032 14.549 32.7689 14.8605 32.0001 14.8691C31.2314 14.8605 30.497 14.549 29.9565 14.0023C29.4159 13.4556 29.1128 12.7178 29.1128 11.949C29.1128 11.1802 29.416 10.4424 29.9565 9.89574C30.4971 9.34907 31.2314 9.03762 32.0002 9.02898Z" fill="white"/>
<path d="M4.98504 53.9806H59.015C59.2777 53.9765 59.5283 53.8693 59.7126 53.6821C59.8969 53.4949 60.0002 53.2427 60.0002 52.98C60.0002 52.7173 59.8969 52.4651 59.7125 52.2779C59.5282 52.0908 59.2777 51.9836 59.015 51.9795H4.98504C4.72247 51.9837 4.47209 52.091 4.2879 52.2782C4.10371 52.4654 4.00049 52.7174 4.00049 52.98C4.00049 53.2426 4.10371 53.4947 4.2879 53.6819C4.47209 53.8691 4.72247 53.9764 4.98504 53.9806Z" fill="white"/>
<path d="M59.0148 55.9712H4.98483C4.72221 55.9754 4.47175 56.0826 4.2875 56.2698C4.10325 56.457 3.99999 56.7091 4 56.9718C4.00001 57.2344 4.10328 57.4866 4.28754 57.6737C4.4718 57.8609 4.72227 57.9682 4.98489 57.9723H59.0148C59.2775 57.9682 59.5279 57.8609 59.7122 57.6737C59.8964 57.4865 59.9997 57.2344 59.9997 56.9717C59.9997 56.7091 59.8964 56.457 59.7122 56.2698C59.5279 56.0826 59.2775 55.9753 59.0148 55.9712Z" fill="white"/>
</svg>
