<svg width="604" height="249" viewBox="0 0 604 249" fill="none" xmlns="http://www.w3.org/2000/svg">
<path d="M1.53061 192.303V193.773H3H123.314V245.296V246.765H124.783H154.406H155.875V245.296V193.773H187.32H188.79V192.303V166.301V164.832H187.32H155.875V9.62869V8.1593H154.406H118.529H117.778L117.338 8.76837L1.8088 168.732L1.53061 169.117V169.593V192.303ZM347.782 75.7182L347.785 75.7319L347.787 75.7456C350.396 88.7861 351.709 104.811 351.709 123.842C351.709 143.533 350.395 159.998 347.786 173.259L347.784 173.27L347.782 173.281C345.41 186.437 340.363 196.904 332.705 204.774L332.698 204.781L332.691 204.789C325.369 212.529 314.617 216.507 300.186 216.507C285.535 216.507 274.558 212.529 267.015 204.781C259.57 196.907 254.52 186.433 251.929 173.27C249.538 160.002 248.334 143.532 248.334 123.842C248.334 104.811 249.537 88.7804 251.929 75.732C254.52 62.5676 259.57 52.0927 267.015 44.2188C274.558 36.4709 285.535 32.4924 300.186 32.4924C314.617 32.4924 325.369 36.4702 332.691 44.2111L332.698 44.2186L332.705 44.226C340.363 52.096 345.41 62.5624 347.782 75.7182ZM415.21 192.303V193.773H416.68H536.993V245.296V246.765H538.463H568.086H569.555V245.296V193.773H601H602.469V192.303V166.301V164.832H601H569.555V9.62869V8.1593H568.086H532.209H531.458L531.018 8.76837L415.488 168.732L415.21 169.117V169.593V192.303ZM124.63 45.5261V164.832H40.3963L124.63 45.5261ZM234.402 34.895C221.932 56.2754 215.772 85.9725 215.772 123.842C215.772 162.367 221.931 192.503 234.401 214.103C247.02 235.961 269.094 246.765 300.186 246.765C331.064 246.765 353.025 235.957 365.641 214.103C378.111 192.503 384.27 162.367 384.27 123.842C384.27 85.9725 378.111 56.2754 365.641 34.895C353.024 13.0418 331.063 2.23471 300.186 2.23471C269.094 2.23471 247.021 13.0382 234.402 34.895ZM538.31 164.832H454.076L538.31 45.5262V164.832Z" stroke="#0C0C0C" stroke-width="2.93878"/>
</svg>
