<svg width="14" height="14" viewBox="0 0 14 14" fill="none" xmlns="http://www.w3.org/2000/svg">
<path d="M5.65632 7.72794H4.27032C4.04632 7.72794 3.97632 7.64394 3.97632 7.43394V5.73994C3.97632 5.51594 4.06032 5.44594 4.27032 5.44594H5.65632V4.21394C5.65632 3.65394 5.75432 3.12194 6.03432 2.63194C6.32832 2.12794 6.74832 1.79194 7.28032 1.59594C7.63032 1.46994 7.98032 1.41394 8.35832 1.41394H9.73032C9.92632 1.41394 10.0103 1.49794 10.0103 1.69394V3.28994C10.0103 3.48594 9.92632 3.56994 9.73032 3.56994C9.35232 3.56994 8.97432 3.56994 8.59632 3.58394C8.21832 3.58394 8.02232 3.76594 8.02232 4.15794C8.00832 4.57794 8.02232 4.98394 8.02232 5.41794H9.64632C9.87032 5.41794 9.95432 5.50194 9.95432 5.72594V7.41994C9.95432 7.64394 9.88432 7.71394 9.64632 7.71394H8.02232V12.2779C8.02232 12.5159 7.95232 12.5999 7.70032 12.5999H5.95032C5.74032 12.5999 5.65632 12.5159 5.65632 12.3059V7.72794Z" fill="#0C0C0C"/>
</svg>
