<svg width="18" height="18" viewBox="0 0 18 18" fill="none" xmlns="http://www.w3.org/2000/svg">
<path d="M16.4258 5.28711V13.1621C16.4258 13.6097 16.248 14.0389 15.9315 14.3554C15.6151 14.6718 15.1858 14.8496 14.7383 14.8496H3.48828C3.04073 14.8496 2.61151 14.6718 2.29504 14.3554C1.97857 14.0389 1.80078 13.6097 1.80078 13.1621V5.28711M16.4258 5.28711C16.4258 4.83956 16.248 4.41033 15.9315 4.09387C15.6151 3.7774 15.1858 3.59961 14.7383 3.59961H3.48828C3.04073 3.59961 2.61151 3.7774 2.29504 4.09387C1.97857 4.41033 1.80078 4.83956 1.80078 5.28711M16.4258 5.28711V5.46936C16.4258 5.75747 16.3521 6.04079 16.2116 6.29233C16.0711 6.54387 15.8686 6.75526 15.6233 6.90636L9.99828 10.3676C9.73219 10.5315 9.4258 10.6183 9.11328 10.6183C8.80076 10.6183 8.49438 10.5315 8.22828 10.3676L2.60328 6.90711C2.35797 6.75601 2.15543 6.54462 2.01496 6.29308C1.87448 6.04154 1.80075 5.75822 1.80078 5.47011V5.28711" stroke="#666666" stroke-width="0.9" stroke-linecap="round" stroke-linejoin="round"/>
</svg>
