<svg width="512" height="512" viewBox="0 0 512 512" fill="none" xmlns="http://www.w3.org/2000/svg">
<path d="M194.035 150.132H147.804C143.938 150.132 140.804 153.266 140.804 157.132V203.362C140.804 207.228 143.938 210.362 147.804 210.362H194.035C197.901 210.362 201.035 207.228 201.035 203.362V157.132C201.035 153.266 197.901 150.132 194.035 150.132ZM187.035 196.362H154.804V164.132H187.035V196.362ZM263.123 210.362H309.354C313.22 210.362 316.354 207.228 316.354 203.362V157.132C316.354 153.266 313.22 150.132 309.354 150.132H263.123C259.257 150.132 256.123 153.266 256.123 157.132V203.362C256.123 207.229 259.256 210.362 263.123 210.362ZM270.123 164.132H302.354V196.362H270.123V164.132ZM194.035 228.309H147.804C143.938 228.309 140.804 231.443 140.804 235.309V281.539C140.804 285.405 143.938 288.539 147.804 288.539H194.035C197.901 288.539 201.035 285.405 201.035 281.539V235.309C201.035 231.442 197.901 228.309 194.035 228.309ZM187.035 274.539H154.804V242.309H187.035V274.539ZM263.123 288.539H309.354C313.22 288.539 316.354 285.405 316.354 281.539V235.309C316.354 231.443 313.22 228.309 309.354 228.309H263.123C259.257 228.309 256.123 231.443 256.123 235.309V281.539C256.123 285.405 259.256 288.539 263.123 288.539ZM270.123 242.309H302.354V274.539H270.123V242.309ZM194.035 317.18H147.804C143.938 317.18 140.804 320.314 140.804 324.18V370.41C140.804 374.276 143.938 377.41 147.804 377.41H194.035C197.901 377.41 201.035 374.276 201.035 370.41V324.18C201.035 320.313 197.901 317.18 194.035 317.18ZM187.035 363.41H154.804V331.18H187.035V363.41ZM263.123 377.41H309.354C313.22 377.41 316.354 374.276 316.354 370.41V324.18C316.354 320.314 313.22 317.18 309.354 317.18H263.123C259.257 317.18 256.123 320.314 256.123 324.18V370.41C256.123 374.276 259.256 377.41 263.123 377.41ZM270.123 331.18H302.354V363.41H270.123V331.18ZM500.09 215.477C481.847 202.34 462.277 198.616 444.986 204.997C436.639 208.075 429.431 213.306 423.591 220.331C423.517 209.378 423.307 198.561 423.022 188.035C422.917 184.171 419.698 181.072 415.835 181.227C411.97 181.331 408.922 184.548 409.026 188.414C409.247 196.577 409.53 207.074 409.645 219.092C406.733 215.63 403.379 212.589 399.598 210.026C392.311 205.087 383.959 202.285 374.956 201.593V134.444H387.797C391.663 134.444 394.797 131.31 394.797 127.444V93.6422C394.797 89.7762 391.663 86.6422 387.797 86.6422H327.713L232.869 49.2932C231.219 48.6422 229.384 48.6452 227.734 49.2942L133.106 86.6422H73.1242C69.2582 86.6422 66.1242 89.7762 66.1242 93.6422V127.444C66.1242 131.31 69.2582 134.444 73.1242 134.444H85.9652V414.63C55.4782 423.891 29.8612 436.136 11.6272 450.731C9.30618 452.588 8.41218 455.709 9.39618 458.513C10.3802 461.317 13.0282 463.196 16.0012 463.196H444.924C447.897 463.196 450.545 461.318 451.529 458.513C452.513 455.708 451.619 452.588 449.298 450.731C432.908 437.614 410.553 426.396 384.062 417.535C384.277 417.28 384.487 417.015 384.703 416.764C412.916 383.87 421.578 320.226 423.281 255.749C438.298 251.747 451.812 253.607 461.686 261.167C472.508 269.452 477.885 283.734 476.824 301.382C476.592 305.241 479.532 308.558 483.391 308.789C483.534 308.798 483.676 308.802 483.817 308.802C487.491 308.802 490.575 305.938 490.798 302.222C492.147 279.783 484.83 261.254 470.195 250.051C458.581 241.159 443.709 237.943 427.415 240.563C432.415 229.514 440.134 221.709 449.832 218.133C462.619 213.416 477.563 216.509 491.911 226.84C495.049 229.1 499.422 228.387 501.682 225.25C503.939 222.11 503.228 217.735 500.09 215.477ZM391.746 221.614C397.267 225.355 401.559 230.614 404.509 237.072C394.236 233.865 384.221 233.207 374.959 235.09V215.652C381.153 216.292 386.827 218.281 391.746 221.614ZM230.31 63.3302L289.508 86.6422H171.246L230.31 63.3302ZM80.1242 100.642H380.8V120.444H80.1242V100.642ZM99.9642 134.443H360.958V202.167C355.3 203.028 349.487 204.613 343.59 206.98C340.003 208.42 338.262 212.497 339.702 216.084C341.143 219.67 345.216 221.411 348.806 219.972C352.945 218.31 357.01 217.107 360.957 216.357V240.215C360.778 240.314 360.592 240.398 360.414 240.499C344.386 249.598 334.605 266.952 332.874 289.365C332.576 293.219 335.459 296.586 339.314 296.884C339.498 296.898 339.68 296.905 339.86 296.905C343.482 296.905 346.548 294.115 346.832 290.444C347.93 276.237 352.875 264.774 360.957 257.336V410.677C322.527 400.61 277.568 395.015 230.46 395.015C183.352 395.015 138.393 400.609 99.9632 410.676L99.9642 134.443ZM38.9212 449.194C82.8472 424.106 153.47 409.014 230.462 409.014C307.453 409.014 378.076 424.106 422.002 449.194H38.9212ZM374.958 406.572V249.499C385.013 246.63 396.722 248.074 408.83 253.769C409.061 256.068 409.187 258.438 409.182 260.887C409.182 260.902 409.184 260.916 409.184 260.93C407.359 313.987 399.878 376.272 374.958 406.572Z" fill="white"/>
</svg>
