<svg width="48" height="48" viewBox="0 0 48 48" fill="none" xmlns="http://www.w3.org/2000/svg">
<g clip-path="url(#clip0_4414_34)">
<path fill-rule="evenodd" clip-rule="evenodd" d="M23.9997 47.9995C37.2544 47.9995 47.9994 37.2545 47.9994 23.9998C47.9994 10.7452 37.2544 0.00012207 23.9997 0.00012207C10.745 0.00012207 0 10.7452 0 23.9998C0 37.2545 10.745 47.9995 23.9997 47.9995ZM31.4868 11.1802C31.8512 9.88566 30.595 9.12016 29.4476 9.93755L13.4316 21.3473C12.1873 22.2338 12.383 23.9998 13.7256 23.9998H17.943V23.9671H26.1627L19.4652 26.3303L16.5127 36.8195C16.1482 38.114 17.4044 38.8795 18.5518 38.062L34.5679 26.6523C35.8121 25.7659 35.6163 23.9998 34.2739 23.9998H27.8782L31.4868 11.1802Z" fill="#F15757"/>
</g>
<defs>
<clipPath id="clip0_4414_34">
<rect width="48" height="47.9998" fill="white"/>
</clipPath>
</defs>
</svg>
