<svg width="48" height="48" viewBox="0 0 48 48" fill="none" xmlns="http://www.w3.org/2000/svg">
<g clip-path="url(#clip0_4414_25)">
<path fill-rule="evenodd" clip-rule="evenodd" d="M30.6668 14.0224C28.6934 12.7038 26.3734 12 24 12V0C28.7467 0 33.3869 1.40758 37.3337 4.04473C41.2805 6.68188 44.3566 10.4302 46.1731 14.8156C47.9896 19.201 48.4649 24.0266 47.5388 28.6822C46.6128 33.3377 44.327 37.6141 40.9705 40.9705C37.6141 44.327 33.3377 46.6128 28.6822 47.5388C24.0266 48.4649 19.201 47.9896 14.8156 46.1731C10.4302 44.3566 6.68188 41.2805 4.04473 37.3337C1.40758 33.3869 0 28.7467 0 24H12C12 26.3734 12.7038 28.6934 14.0224 30.6668C15.3409 32.6402 17.2151 34.1783 19.4078 35.0866C21.6005 35.9948 24.0133 36.2324 26.3411 35.7694C28.6688 35.3064 30.807 34.1635 32.4853 32.4853C34.1635 30.807 35.3064 28.6688 35.7694 26.3411C36.2324 24.0133 35.9948 21.6005 35.0866 19.4078C34.1783 17.2151 32.6402 15.3409 30.6668 14.0224Z" fill="#007DFC"/>
<path fill-rule="evenodd" clip-rule="evenodd" d="M12 5.1975e-06C12 1.57587 11.6896 3.1363 11.0866 4.5922C10.4835 6.04811 9.59959 7.37098 8.48528 8.48529C7.37098 9.5996 6.04811 10.4835 4.5922 11.0866C3.13629 11.6896 1.57586 12 5.24532e-07 12L0 24C3.15172 24 6.27259 23.3792 9.18441 22.1731C12.0962 20.967 14.742 19.1992 16.9705 16.9705C19.1992 14.742 20.967 12.0962 22.1731 9.18441C23.3792 6.27258 24 3.15172 24 0L12 5.1975e-06Z" fill="#007DFC"/>
</g>
<defs>
<clipPath id="clip0_4414_25">
<rect width="48" height="48" fill="white"/>
</clipPath>
</defs>
</svg>
