<svg width="48" height="48" viewBox="0 0 48 48" fill="none" xmlns="http://www.w3.org/2000/svg">
<g clip-path="url(#clip0_4414_12)">
<path fill-rule="evenodd" clip-rule="evenodd" d="M26.7408 5.48058L29.9052 0.000183105L38.8764 5.18058L35.7132 10.6598C35.1576 11.621 35.9892 12.7898 37.0788 12.5798L43.1412 11.4098L45.1032 21.5822L39.0408 22.751C29.2344 24.6422 21.7476 14.1302 26.7408 5.48058Z" fill="#3A724F"/>
<path fill-rule="evenodd" clip-rule="evenodd" d="M21.2589 42.5198L18.0945 48.0002L9.12209 42.821L12.2865 37.3406C12.8421 36.3794 12.0105 35.2106 10.9197 35.4206L4.85848 36.5894L2.89648 26.4182L8.95888 25.2494C18.7653 23.3582 26.2509 33.8702 21.2589 42.5198Z" fill="#DC8E43"/>
<path fill-rule="evenodd" clip-rule="evenodd" d="M21.5331 5.48058L18.3699 0.000183105L9.3975 5.18058L12.5619 10.6598C13.1163 11.621 12.2859 12.7898 11.1951 12.5798L5.1327 11.4098L3.1731 21.5822L9.2343 22.751C19.0419 24.6422 26.5287 14.1302 21.5343 5.48058H21.5331Z" fill="#14424C"/>
<path fill-rule="evenodd" clip-rule="evenodd" d="M26.4763 42.5198L29.6383 48.0002L38.6107 42.821L35.4463 37.3406C34.8919 36.3794 35.7223 35.2106 36.8131 35.4206L42.8743 36.5894L44.8363 26.4182L38.7739 25.2494C28.9675 23.3582 21.4819 33.8702 26.4739 42.5198H26.4763Z" fill="#C85D1B"/>
</g>
<defs>
<clipPath id="clip0_4414_12">
<rect width="48" height="48" fill="white"/>
</clipPath>
</defs>
</svg>
