<svg width="48" height="48" viewBox="0 0 48 48" fill="none" xmlns="http://www.w3.org/2000/svg">
<g clip-path="url(#clip0_4414_53)">
<path fill-rule="evenodd" clip-rule="evenodd" d="M24 48C37.255 48 48 37.2548 48 24C48 10.7452 37.255 0 24 0C10.7452 0 0 10.7452 0 24C0 37.2548 10.7452 48 24 48ZM27.7044 18.5431C29.7501 16.4972 29.7501 13.1803 27.7044 11.1344C25.6585 9.08854 22.3416 9.08854 20.2957 11.1344C18.2499 13.1803 18.2499 16.4972 20.2957 18.5431L24 22.2474L27.7044 18.5431ZM29.457 27.7044C31.5029 29.7503 34.8198 29.7503 36.8657 27.7044C38.9114 25.6585 38.9114 22.3416 36.8657 20.2957C34.8198 18.2499 31.5029 18.2499 29.457 20.2957L25.7527 24.0001L29.457 27.7044ZM27.7044 36.8657C29.7501 34.8198 29.7501 31.5029 27.7044 29.457L24 25.7527L20.2957 29.457C18.2499 31.5029 18.2499 34.8198 20.2957 36.8657C22.3416 38.9115 25.6585 38.9115 27.7044 36.8657ZM11.1344 27.7044C9.08856 25.6585 9.08856 22.3416 11.1344 20.2957C13.1803 18.2499 16.4972 18.2499 18.5431 20.2957L22.2474 24.0001L18.5431 27.7044C16.4972 29.7503 13.1803 29.7503 11.1344 27.7044Z" fill="#7F57F1"/>
</g>
<defs>
<clipPath id="clip0_4414_53">
<rect width="48" height="48" fill="white"/>
</clipPath>
</defs>
</svg>
