<svg width="20" height="21" viewBox="0 0 20 21" fill="none" xmlns="http://www.w3.org/2000/svg">
<path d="M8.33594 11.3335C8.69385 11.8119 9.15044 12.2077 9.67477 12.4942C10.199 12.7807 10.7789 12.9511 11.3749 12.9937C11.9708 13.0364 12.5689 12.9504 13.1287 12.7416C13.6885 12.5328 14.1969 12.206 14.6193 11.7835L17.1193 9.28349C17.8783 8.49762 18.2983 7.44511 18.2888 6.35263C18.2793 5.26014 17.841 4.21508 17.0685 3.44255C16.296 2.67002 15.2509 2.23182 14.1584 2.22233C13.0659 2.21283 12.0134 2.63281 11.2276 3.3918L9.79427 4.8168" stroke="#0C0C0C" stroke-width="2" stroke-linecap="round" stroke-linejoin="round"/>
<path d="M11.6678 9.66703C11.3099 9.18861 10.8533 8.7927 10.329 8.50623C9.80473 8.21977 9.22489 8.04942 8.62889 8.00674C8.03299 7.96406 7.43482 8.05004 6.87502 8.25886C6.31523 8.46769 5.80688 8.79446 5.38448 9.21703L2.88448 11.717C2.12548 12.5029 1.70551 13.5554 1.715 14.6479C1.72449 15.7404 2.1627 16.7854 2.93523 17.5579C3.70777 18.3304 4.75282 18.7687 5.8453 18.7782C6.93779 18.7876 7.9903 18.3677 8.77614 17.6087L10.2011 16.1837" stroke="#0C0C0C" stroke-width="2" stroke-linecap="round" stroke-linejoin="round"/>
</svg>
