<svg width="14" height="14" viewBox="0 0 14 14" fill="none" xmlns="http://www.w3.org/2000/svg">
<path d="M12.5984 12.5999V8.4979C12.5984 6.4819 12.1644 4.9419 9.81244 4.9419C8.67844 4.9419 7.92244 5.5579 7.61444 6.1459H7.58644V5.1239H5.36044V12.5999H7.68444V8.8899C7.68444 7.9099 7.86644 6.9719 9.07044 6.9719C10.2604 6.9719 10.2744 8.0779 10.2744 8.9459V12.5859H12.5984V12.5999ZM1.58044 5.1239H3.90444V12.5999H1.58044V5.1239ZM2.74244 1.3999C2.00044 1.3999 1.39844 2.0019 1.39844 2.7439C1.39844 3.4859 2.00044 4.1019 2.74244 4.1019C3.48444 4.1019 4.08644 3.4859 4.08644 2.7439C4.08644 2.0019 3.48444 1.3999 2.74244 1.3999Z" fill="#0C0C0C"/>
</svg>
