<svg width="190" height="45" viewBox="0 0 190 45" fill="none" xmlns="http://www.w3.org/2000/svg">
<g clip-path="url(#clip0_411_65)">
<path d="M174.831 25.9876C174.831 20.5802 176.856 16.877 182.164 16.877C187.472 16.877 189.333 20.4827 189.333 25.8282C189.333 31.2379 187.275 35.0031 181.965 35.0031C176.654 35.0031 174.831 31.3664 174.831 25.9876ZM182.164 32.8159C185.54 32.8159 186.761 30.5929 186.761 26.0209C186.761 21.3204 185.335 19.0332 181.969 19.0332C178.658 19.0332 177.403 21.2562 177.403 25.7948C177.403 30.4954 178.82 32.8159 182.164 32.8159Z" fill="#01202F"/>
<path d="M72.8258 33.9847H70.2539V11.415H72.8258V33.9847ZM81.604 11.415H84.5942L76.5886 22.6844L85.3335 33.9847H82.0532L73.6601 22.8129V22.6844L81.604 11.415Z" fill="#01202F"/>
<path d="M118.778 33.9843H116.27V22.4794C116.27 19.809 114.953 18.3263 112.507 18.3263C111.537 18.327 110.59 18.6271 109.797 19.1859C109.003 19.7447 108.401 20.5349 108.072 21.4488V33.9748H105.562V16.4699H107.463L107.977 18.3048H108.105C108.58 17.6932 110.356 16.1152 113.097 16.1152C116.603 16.1152 118.692 18.0192 118.787 21.9106L118.778 33.9843Z" fill="#01202F"/>
<path d="M124.568 29.3142V18.497H121.953V16.8882L124.568 16.4122L125.34 11.8711H127.045V16.4764H131.867V18.5042H127.045V29.1928C127.045 31.1563 128.041 31.9631 129.586 31.9631C131.012 31.9631 131.803 31.6395 132.253 31.3491L132.966 33.3459C132.291 33.7339 131.133 34.1527 129.044 34.1527C126.144 34.1408 124.568 32.6319 124.568 29.3142Z" fill="#01202F"/>
<path d="M145.019 18.9473C144.381 18.7672 143.721 18.6806 143.058 18.6903C141.354 18.6903 139.586 19.3662 138.749 20.9442V33.9842H136.274V16.4697H138.176L138.723 18.3999H138.851C139.624 17.1457 141.228 16.1794 143.256 16.1794C143.849 16.1637 144.443 16.218 145.024 16.3412L145.019 18.9473Z" fill="#01202F"/>
<path d="M146.949 25.2595C146.949 19.8498 148.977 16.1465 154.282 16.1465C159.588 16.1465 161.451 19.7522 161.451 25.0977C161.451 30.5075 159.395 34.275 154.083 34.275C148.77 34.275 146.949 30.636 146.949 25.2595ZM154.282 32.0854C157.658 32.0854 158.879 29.8625 158.879 25.2905C158.879 20.59 157.465 18.3052 154.09 18.3052C150.776 18.3052 149.524 20.5257 149.524 25.0668C149.524 29.7673 150.938 32.0854 154.282 32.0854Z" fill="#01202F"/>
<path d="M168.528 9.5459V29.8307C168.528 31.3753 169.044 32.0513 170.36 32.0513C170.864 32.0507 171.361 31.9291 171.808 31.6966V33.822C171.111 34.0935 170.368 34.2253 169.621 34.2099C167.211 34.2099 166.056 32.7819 166.056 30.5066V9.5459H168.528Z" fill="#01202F"/>
<path d="M96.9546 34.1862C96.1188 34.4679 95.2432 34.6134 94.3613 34.617C89.6644 34.617 86.0918 30.6352 86.0918 25.9561C86.0918 21.277 89.6573 17.2715 94.3613 17.2715C95.2429 17.2716 96.1187 17.4147 96.9546 17.6951C92.4146 18.0093 89.1343 21.2033 89.1343 25.9514C89.1343 30.6995 92.405 33.8697 96.9546 34.1862Z" fill="url(#paint0_linear_411_65)"/>
<path d="M102.659 25.9519C102.659 28.7865 100.772 32.1852 97.2208 32.1852C95.8739 32.1599 94.5659 31.7286 93.4675 30.9476C93.7658 30.9919 94.0669 31.0142 94.3684 31.0142C97.3325 31.0142 99.6714 28.8318 99.6714 25.9519C99.6714 23.0721 97.3325 20.8658 94.3684 20.8658C94.0668 20.8654 93.7656 20.8885 93.4675 20.9349C94.5654 20.1529 95.8737 19.7215 97.2208 19.6973C100.758 19.6973 102.659 23.1173 102.659 25.9519Z" fill="url(#paint1_linear_411_65)"/>
<path d="M31.7826 44.1059L47.5277 22.3146C47.5718 22.2524 47.6003 22.1806 47.6109 22.1051L50.5274 0.425637C50.5366 0.354933 50.5254 0.283081 50.4951 0.218562C50.4648 0.154044 50.4167 0.0995511 50.3564 0.0615172C50.2962 0.0234833 50.2264 0.00349489 50.1552 0.00391267C50.084 0.00433045 50.0144 0.0251397 49.9546 0.0638777L32.0298 11.7902C31.7904 11.9474 31.5103 12.0312 31.224 12.0312C30.9377 12.0312 30.6576 11.9474 30.4182 11.7902L12.5291 0.085297C12.4694 0.0446467 12.3992 0.0223164 12.327 0.0210393C12.2547 0.0235025 12.1842 0.0448272 12.1226 0.0829146C12.0609 0.12095 12.012 0.176696 11.9823 0.242909C11.9527 0.309121 11.9436 0.382738 11.9562 0.454195L15.1984 22.1123C15.2105 22.1859 15.2389 22.2558 15.2816 22.317L31.0315 44.1131C31.0765 44.17 31.1338 44.2159 31.1992 44.2472C31.2646 44.2785 31.3363 44.2944 31.4088 44.2937C31.4813 44.293 31.5526 44.2757 31.6174 44.2432C31.6822 44.2107 31.7387 44.1637 31.7826 44.1059Z" fill="url(#paint2_linear_411_65)"/>
<path d="M13.9457 23.4498L0.366059 30.9421C0.250988 31.0079 0.156506 31.1045 0.0932086 31.2211C0.0299112 31.3376 0.00030109 31.4695 0.00770624 31.602C0.0151114 31.7345 0.0592361 31.8623 0.135129 31.971C0.211022 32.0798 0.315688 32.1652 0.437373 32.2178L28.9611 43.9726C29.013 43.9938 29.0704 43.9975 29.1246 43.9833C29.1788 43.969 29.2269 43.9375 29.2618 43.8935C29.2966 43.8495 29.3162 43.7954 29.3177 43.7393C29.3192 43.6832 29.3025 43.6281 29.2701 43.5823L14.8609 23.6688C14.7609 23.5273 14.6129 23.427 14.4445 23.3867C14.2761 23.3465 14.0988 23.3689 13.9457 23.4498Z" fill="url(#paint3_linear_411_65)"/>
<path d="M48.8279 23.4498L62.4076 30.9421C62.5226 31.0079 62.6171 31.1045 62.6804 31.2211C62.7437 31.3376 62.7733 31.4695 62.7659 31.602C62.7585 31.7345 62.7144 31.8623 62.6385 31.971C62.5626 32.0798 62.4579 32.1652 62.3363 32.2178L33.8244 43.9726C33.7725 43.9949 33.7146 43.9994 33.6598 43.9855C33.6051 43.9715 33.5564 43.9398 33.5215 43.8953C33.4866 43.8508 33.4672 43.796 33.4666 43.7394C33.4659 43.6829 33.4839 43.6276 33.5178 43.5823L47.9128 23.6688C48.0128 23.5273 48.1608 23.427 48.3291 23.3867C48.4975 23.3465 48.6748 23.3689 48.8279 23.4498Z" fill="url(#paint4_linear_411_65)"/>
</g>
<defs>
<linearGradient id="paint0_linear_411_65" x1="86.0894" y1="25.9439" x2="96.951" y2="25.9439" gradientUnits="userSpaceOnUse">
<stop stop-color="#131DDF"/>
<stop offset="1" stop-color="#00B3EB"/>
</linearGradient>
<linearGradient id="paint1_linear_411_65" x1="93.4655" y1="25.941" x2="102.656" y2="25.941" gradientUnits="userSpaceOnUse">
<stop stop-color="#131DDF"/>
<stop offset="1" stop-color="#00B3EB"/>
</linearGradient>
<linearGradient id="paint2_linear_411_65" x1="11.942" y1="22.148" x2="50.5178" y2="22.148" gradientUnits="userSpaceOnUse">
<stop stop-color="#131DDF"/>
<stop offset="1" stop-color="#00B3EB"/>
</linearGradient>
<linearGradient id="paint3_linear_411_65" x1="3.0853e-06" y1="33.6791" x2="29.3081" y2="33.6791" gradientUnits="userSpaceOnUse">
<stop stop-color="#131DDF"/>
<stop offset="1" stop-color="#00B3EB"/>
</linearGradient>
<linearGradient id="paint4_linear_411_65" x1="33.46" y1="33.6799" x2="62.7574" y2="33.6799" gradientUnits="userSpaceOnUse">
<stop stop-color="#131DDF"/>
<stop offset="1" stop-color="#00B3EB"/>
</linearGradient>
<clipPath id="clip0_411_65">
<rect width="189.333" height="44.549" fill="white"/>
</clipPath>
</defs>
</svg>
