<svg width="50" height="50" viewBox="0 0 50 50" fill="none" xmlns="http://www.w3.org/2000/svg">
<path d="M19.3645 16.3187L19.5825 16.3141L19.7274 16.1512C26.1212 8.96913 36.2254 4.34655 45.0462 4.50389C45.164 4.5073 45.276 4.55552 45.3594 4.63874C45.443 4.72216 45.4914 4.83441 45.4949 4.95244C45.6995 13.7584 41.0408 23.8589 33.8492 30.2676L33.6861 30.413L33.6819 30.6315C33.5675 36.6974 31.0801 42.6046 26.7942 46.8917C26.6881 46.9946 26.5469 47.0534 26.3991 47.0561C26.3605 47.0561 26.3221 47.0503 26.2853 47.0388C26.0695 46.9654 25.9636 46.8253 25.946 46.703L24.888 39.3161L24.7558 38.3927L24.06 39.014L23.0384 39.9264L23.0373 39.9274C22.9503 40.0056 22.8365 40.0474 22.7196 40.0442C22.6027 40.0409 22.4914 39.9929 22.4089 39.91L22.4082 39.9094L10.0893 27.5905L10.0888 27.59C10.0059 27.5073 9.95771 27.3959 9.9543 27.2787C9.95089 27.1616 9.99247 27.0476 10.0705 26.9602L10.9828 25.9387L11.6041 25.2429L10.6807 25.1107L3.29374 24.0527C3.2937 24.0527 3.29366 24.0527 3.29361 24.0527C3.20915 24.0405 3.12975 24.005 3.06436 23.9502C2.99893 23.8953 2.95013 23.8233 2.92344 23.7422C2.89676 23.6611 2.89325 23.5742 2.91333 23.4912C2.9334 23.4082 2.97625 23.3325 3.03706 23.2725L3.03915 23.2704C7.38277 18.9375 13.2306 16.4473 19.3645 16.3187ZM2.68612 22.9165L2.68604 22.9165L2.68612 22.9165ZM29.0933 20.9022L29.094 20.9028C30.1252 21.9341 31.4809 22.4504 32.8363 22.4504C34.1917 22.4504 35.5474 21.9341 36.5787 20.9028C38.6429 18.8405 38.6426 15.4821 36.5787 13.4182C34.5146 11.3541 31.158 11.3541 29.094 13.4182L29.0933 13.4188C28.1034 14.4124 27.5475 15.7579 27.5475 17.1605C27.5475 18.5631 28.1034 19.9085 29.0933 20.9022ZM0.518435 48.9076C0.675631 48.3833 1.45407 45.8189 2.44726 43.1324C2.94457 41.7873 3.49279 40.4195 4.04107 39.265C4.59778 38.0928 5.12729 37.2007 5.57303 36.7547C6.59135 35.7392 7.97083 35.1689 9.40899 35.1689C10.8471 35.1689 12.2265 35.7391 13.2448 36.7545C14.2603 37.7725 14.8306 39.1518 14.8306 40.5897C14.8306 42.0278 14.2602 43.4072 13.2445 44.4252C12.7986 44.8711 11.9064 45.4007 10.7337 45.9577C9.57926 46.5059 8.21147 47.0542 6.86629 47.5515C4.18032 48.5445 1.61642 49.3228 1.09146 49.4802C1.01212 49.5033 0.928035 49.5047 0.847956 49.4842C0.767558 49.4637 0.694171 49.4219 0.635498 49.3632C0.576822 49.3046 0.535027 49.2312 0.514495 49.1508C0.494073 49.0708 0.495438 48.9868 0.518435 48.9076Z" stroke="white"/>
</svg>
