<svg width="50" height="50" viewBox="0 0 50 50" fill="none" xmlns="http://www.w3.org/2000/svg">
<path d="M10.4173 32.3306L10.4169 32.3309C10.2571 32.4459 10.0682 32.514 9.87163 32.5273C9.6751 32.5406 9.47876 32.4987 9.30482 32.4063L9.30486 32.4062L9.29611 32.4017C9.11895 32.312 8.96947 32.1758 8.86362 32.0078C8.75866 31.8412 8.70049 31.6495 8.69515 31.4527V29.0839V28.5851L8.19641 28.5839C7.54679 28.5822 6.90389 28.4522 6.30467 28.2013C5.70545 27.9505 5.16171 27.5836 4.7047 27.1219C4.2477 26.6602 3.88644 26.1128 3.64167 25.511C3.39691 24.9093 3.27348 24.2651 3.27847 23.6155H3.27848V23.6117V9.12554C3.27848 7.57476 3.89453 6.0875 4.99109 4.99093C6.08766 3.89437 7.57492 3.27832 9.1257 3.27832H26.8896C28.4404 3.27832 29.9276 3.89437 31.0242 4.99093C32.1208 6.0875 32.7368 7.57476 32.7368 9.12554V12.1789C32.7368 12.7938 32.2384 13.2922 31.6235 13.2922H23.0979C20.4384 13.2922 17.8878 14.3487 16.0072 16.2293C14.1266 18.1099 13.0701 20.6605 13.0701 23.32V27.0005V29.9719C13.0701 30.2561 12.9333 30.523 12.7024 30.6888L10.4173 32.3306Z" stroke="white"/>
<path d="M34.5 42.8575L34.3696 42.7643H34.2093H23.0982C21.5474 42.7643 20.0602 42.1483 18.9636 41.0517C17.867 39.9551 17.251 38.4679 17.251 36.9171V23.3199C17.251 21.7691 17.867 20.2818 18.9636 19.1853C20.0602 18.0887 21.5474 17.4727 23.0982 17.4727H40.8754C42.4253 17.4762 43.9106 18.0934 45.0065 19.1893C46.1024 20.2852 46.7196 21.7704 46.7232 23.3201C46.7232 23.3204 46.7232 23.3207 46.7232 23.321L46.7232 37.8477C46.7233 39.1503 46.2093 40.4004 45.2929 41.3262C44.3765 42.252 43.1318 42.7788 41.8292 42.7921L41.3343 42.7972V43.2921V45.6442C41.3265 45.8407 41.268 46.0319 41.1643 46.1992C41.0602 46.3671 40.9142 46.505 40.7407 46.5994C40.5636 46.6897 40.3651 46.7296 40.1669 46.7146C39.9672 46.6995 39.7757 46.6294 39.6135 46.512L39.6111 46.5103L34.5 42.8575ZM30.8482 32.2504V35.8575C30.8482 36.5479 31.7176 36.853 32.149 36.314L37.7861 29.2707C38.1688 28.7924 37.8283 28.0838 37.2158 28.0838H33.4315V24.4767C33.4315 23.7863 32.5622 23.4812 32.1308 24.0202L26.4937 31.0635C26.1109 31.5418 26.4514 32.2504 27.064 32.2504H30.8482Z" stroke="white"/>
</svg>
