<svg width="50" height="50" viewBox="0 0 50 50" fill="none" xmlns="http://www.w3.org/2000/svg">
<path d="M30.1667 24.167V31.2503C30.1667 38.1539 24.5702 43.7503 17.6667 43.7503H13.5C6.59644 43.7503 1 38.1539 1 31.2503V24.167C1 23.4766 1.55965 22.917 2.25 22.917H28.9167C29.6071 22.917 30.1667 23.4766 30.1667 24.167Z" stroke="white" stroke-linecap="round" stroke-linejoin="round"/>
<path d="M19.75 18.7503C19.75 16.667 21.2381 14.5837 24.2144 14.5837C27.5017 14.5837 30.1667 11.9187 30.1667 8.63129V7.292" stroke="white" stroke-linecap="round" stroke-linejoin="round"/>
<path d="M11.416 18.75V17.7083C11.416 14.2566 14.2142 11.4583 17.666 11.4583C19.9673 11.4583 21.8327 9.59286 21.8327 7.29167V6.25001" stroke="white" stroke-linecap="round" stroke-linejoin="round"/>
<path d="M28.084 22.917H33.2923C36.1688 22.917 38.5007 25.2489 38.5007 28.1253C38.5007 31.0018 36.1688 33.3337 33.2923 33.3337H30.1673" stroke="white" stroke-linecap="round" stroke-linejoin="round"/>
</svg>
