<svg width="683" height="683" viewBox="0 0 683 683" fill="none" xmlns="http://www.w3.org/2000/svg">
<g clip-path="url(#clip0_695_55)">
<mask id="mask0_695_55" style="mask-type:luminance" maskUnits="userSpaceOnUse" x="0" y="0" width="683" height="683">
<path d="M0 -0.00012207H682.667V682.667H0V-0.00012207Z" fill="white"/>
</mask>
<g mask="url(#mask0_695_55)">
<path d="M315.907 62.5369H289.465C282.01 62.5369 275.967 68.5809 275.967 76.0356V111.188C275.967 116.99 272.239 122.096 266.75 123.978C257.693 127.082 248.887 130.732 240.381 134.897C235.166 137.45 228.919 136.477 224.814 132.372L199.961 107.518C194.689 102.246 186.143 102.246 180.871 107.518L107.518 180.87C102.247 186.142 102.247 194.689 107.518 199.96L132.371 224.814C136.478 228.92 137.449 235.166 134.897 240.381C130.733 248.889 127.082 257.692 123.978 266.75C122.097 272.24 116.991 275.966 111.187 275.966H76.0354C68.5807 275.966 62.5381 282.01 62.5381 289.465V393.202C62.5381 400.656 68.5807 406.7 76.0354 406.7H111.187C116.991 406.7 122.097 410.426 123.978 415.917C127.082 424.974 130.733 433.778 134.897 442.285C137.449 447.5 136.478 453.748 132.371 457.853L107.518 482.706C102.247 487.978 102.247 496.524 107.518 501.796L180.871 575.148C186.143 580.42 194.689 580.42 199.961 575.148L224.814 550.294C228.919 546.189 235.166 545.217 240.381 547.769C248.887 551.934 257.693 555.585 266.75 558.689C272.239 560.57 275.967 565.676 275.967 571.48V606.632C275.967 614.086 282.01 620.129 289.465 620.129H393.202C400.657 620.129 406.699 614.086 406.699 606.632V571.48C406.699 565.676 410.427 560.57 415.917 558.689C424.974 555.585 433.778 551.934 442.285 547.769C447.499 545.217 453.747 546.189 457.853 550.294L482.706 575.148C487.978 580.42 496.523 580.42 501.795 575.148L575.149 501.796C580.419 496.524 580.419 487.978 575.149 482.706L550.295 457.853C546.189 453.748 545.217 447.5 547.769 442.285C551.934 433.778 555.585 424.974 558.689 415.917C560.57 410.426 565.675 406.7 571.479 406.7H606.631C614.086 406.7 620.129 400.656 620.129 393.202V289.465C620.129 282.01 614.086 275.966 606.631 275.966H571.479C565.675 275.966 560.57 272.24 558.689 266.75C555.585 257.692 551.934 248.889 547.769 240.381C545.217 235.166 546.189 228.92 550.295 224.814L575.149 199.96C580.419 194.689 580.419 186.142 575.149 180.87L501.795 107.518C496.523 102.246 487.978 102.246 482.706 107.518L457.853 132.372C453.747 136.477 447.499 137.45 442.285 134.897C433.778 130.732 424.974 127.082 415.917 123.978C410.427 122.096 406.699 116.99 406.699 111.188V76.0356C406.699 68.5809 400.657 62.5369 393.202 62.5369H362.574" stroke="white" stroke-width="20" stroke-miterlimit="10" stroke-linecap="round" stroke-linejoin="round"/>
<path d="M417.694 474.312C395.211 487.251 369.137 494.651 341.333 494.651C256.658 494.651 188.014 426.008 188.014 341.334C188.014 256.658 256.658 188.015 341.333 188.015C426.009 188.015 494.653 256.658 494.653 341.334C494.653 381.458 479.238 417.982 454.01 445.308" stroke="white" stroke-width="20" stroke-miterlimit="10" stroke-linecap="round" stroke-linejoin="round"/>
<path d="M275.822 294.344H236.222V388.322H275.822" stroke="white" stroke-width="20" stroke-miterlimit="10" stroke-linecap="round" stroke-linejoin="round"/>
<path d="M272.901 341.333H236.221" stroke="white" stroke-width="20" stroke-miterlimit="10" stroke-linecap="round" stroke-linejoin="round"/>
<path d="M320.266 343.488L360.107 388.756" stroke="white" stroke-width="20" stroke-miterlimit="10" stroke-linecap="round" stroke-linejoin="round"/>
<path d="M308.828 293.911V388.756" stroke="white" stroke-width="20" stroke-miterlimit="10" stroke-linecap="round" stroke-linejoin="round"/>
<path d="M360.107 318.56C360.107 332.173 348.171 343.209 334.063 343.209C327.067 343.209 309.034 343.317 309.034 343.317C309.034 343.317 308.922 325.421 308.922 318.56C308.922 312.924 308.859 293.91 308.859 293.91H334.063C348.171 293.91 360.107 304.946 360.107 318.56Z" stroke="white" stroke-width="20" stroke-miterlimit="10" stroke-linecap="round" stroke-linejoin="round"/>
<path d="M392.746 293.911V388.756" stroke="white" stroke-width="20" stroke-miterlimit="10" stroke-linecap="round" stroke-linejoin="round"/>
<path d="M446.445 320.676C446.445 335.458 433.937 347.441 419.155 347.441C411.824 347.441 392.929 347.56 392.929 347.56C392.929 347.56 392.811 328.126 392.811 320.676C392.811 314.556 392.747 293.91 392.747 293.91H419.155C433.937 293.91 446.445 305.894 446.445 320.676Z" stroke="white" stroke-width="20" stroke-miterlimit="10" stroke-linecap="round" stroke-linejoin="round"/>
<path d="M612.346 70.3201L566.026 116.64" stroke="white" stroke-width="20" stroke-miterlimit="10" stroke-linecap="round" stroke-linejoin="round"/>
<path d="M672.667 45.3332C672.667 64.8478 656.848 80.6665 637.333 80.6665C617.819 80.6665 602 64.8478 602 45.3332C602 25.8185 617.819 9.99984 637.333 9.99984C656.848 9.99984 672.667 25.8185 672.667 45.3332Z" stroke="white" stroke-width="20" stroke-miterlimit="10" stroke-linecap="round" stroke-linejoin="round"/>
<path d="M116.641 116.64L70.3208 70.3196" stroke="white" stroke-width="20" stroke-miterlimit="10" stroke-linecap="round" stroke-linejoin="round"/>
<path d="M10 45.3332C10 64.8478 25.8187 80.6665 45.3333 80.6665C64.848 80.6665 80.6667 64.8478 80.6667 45.3332C80.6667 25.8185 64.848 9.99984 45.3333 9.99984C25.8187 9.99984 10 25.8185 10 45.3332Z" stroke="white" stroke-width="20" stroke-miterlimit="10" stroke-linecap="round" stroke-linejoin="round"/>
<path d="M612.346 612.346L566.026 566.026" stroke="white" stroke-width="20" stroke-miterlimit="10" stroke-linecap="round" stroke-linejoin="round"/>
<path d="M672.667 637.333C672.667 617.819 656.848 602 637.333 602C617.819 602 602 617.819 602 637.333C602 656.848 617.819 672.667 637.333 672.667C656.848 672.667 672.667 656.848 672.667 637.333Z" stroke="white" stroke-width="20" stroke-miterlimit="10" stroke-linecap="round" stroke-linejoin="round"/>
<path d="M116.641 566.027L70.3208 612.347" stroke="white" stroke-width="20" stroke-miterlimit="10" stroke-linecap="round" stroke-linejoin="round"/>
<path d="M10 637.333C10 617.819 25.8187 602 45.3333 602C64.848 602 80.6667 617.819 80.6667 637.333C80.6667 656.848 64.848 672.667 45.3333 672.667C25.8187 672.667 10 656.848 10 637.333Z" stroke="white" stroke-width="20" stroke-miterlimit="10" stroke-linecap="round" stroke-linejoin="round"/>
</g>
</g>
<defs>
<clipPath id="clip0_695_55">
<rect width="682.667" height="682.667" fill="white"/>
</clipPath>
</defs>
</svg>
