<svg width="48" height="48" viewBox="0 0 48 48" fill="none" xmlns="http://www.w3.org/2000/svg">
<g clip-path="url(#clip0_4414_87)">
<path fill-rule="evenodd" clip-rule="evenodd" d="M0 3.0188C0 1.35154 1.36632 -6.10352e-05 3.05196 -6.10352e-05H8.36868C9.56832 -6.10352e-05 10.731 0.411178 11.6586 1.16365L13.276 2.47559L13.3164 2.51208C13.3537 2.49962 13.391 2.48746 13.4285 2.47559C16.3464 1.55112 19.8866 1.37531 23.5 1.37531C27.1133 1.37531 30.6535 1.55112 33.5714 2.47559C33.6089 2.48746 33.6462 2.49962 33.6835 2.51208L33.724 2.47559L35.3413 1.16365C36.2689 0.411178 37.4316 -6.10352e-05 38.6312 -6.10352e-05H43.948C45.6336 -6.10352e-05 46.9999 1.35154 46.9999 3.0188V4.88502C46.9999 6.32892 46.385 7.70603 45.306 8.67851L44.0012 9.8545C43.3643 10.4286 42.5998 10.8464 41.7694 11.0742L41.4607 11.1589C42.6697 14.0124 43.3376 17.0625 43.3376 19.53C43.3376 29.4557 37.129 33.7424 31.6584 37.5195C27.3503 40.4941 23.5 43.1525 23.5 48C23.5 43.1525 19.6496 40.4941 15.3415 37.5195C9.87096 33.7424 3.66228 29.4557 3.66228 19.53C3.66228 17.0625 4.3302 14.0124 5.5392 11.1589L5.23056 11.0742C4.40016 10.8464 3.63564 10.4286 2.99868 9.8545L1.69392 8.67851C0.614878 7.70603 0 6.32892 0 4.88502V3.0188ZM27.4675 27.6446C27.4675 28.1189 27.2585 28.5735 26.8865 28.9089C26.5145 29.2442 26.0099 29.4326 25.4837 29.4326C25.0295 29.4326 24.5912 29.2921 24.2406 29.0379C24.8375 30.6183 26.365 32.1158 28.6883 29.7077C30.7393 27.47 28.5971 22.7505 26.51 19.95C25.8144 19.0165 24.6724 18.5672 23.5 18.5672C22.3276 18.5672 21.1855 19.0165 20.4899 19.95C18.4028 22.7505 16.2606 27.47 18.3116 29.7077C20.635 32.1158 22.1624 30.6183 22.7593 29.0379C22.4087 29.2921 21.9704 29.4326 21.5162 29.4326C20.99 29.4326 20.4854 29.2442 20.1134 28.9089C19.7414 28.5735 19.5324 28.1189 19.5324 27.6446H27.4675ZM15.9031 13.6741H10.3766L14.732 17.1237C15.6905 17.8827 17.0914 17.6401 17.6844 16.6123C18.4332 15.3146 17.4386 13.6741 15.9031 13.6741ZM31.0968 13.6741H36.6233L32.2679 17.1237C31.3094 17.8827 29.9086 17.6401 29.3155 16.6123C28.5667 15.3146 29.5613 13.6741 31.0968 13.6741Z" fill="#72B800"/>
</g>
<defs>
<clipPath id="clip0_4414_87">
<rect width="48" height="48.0001" fill="white"/>
</clipPath>
</defs>
</svg>
