<svg width="48" height="48" viewBox="0 0 48 48" fill="none" xmlns="http://www.w3.org/2000/svg">
<g clip-path="url(#clip0_4414_46)">
<path fill-rule="evenodd" clip-rule="evenodd" d="M10.2633 4.31744C8.54649 5.51788 6.99405 6.93718 5.64639 8.53488C11.1536 8.0236 18.1502 8.85846 26.2733 12.92C34.9476 17.2571 41.9326 17.4037 46.7938 16.466C46.3526 15.1305 45.7973 13.847 45.1396 12.6269C39.5748 13.2138 32.4408 12.4369 24.1267 8.27998C18.8472 5.64022 14.1933 4.55281 10.2633 4.31744ZM41.8889 7.99998C37.4944 3.09 31.1081 0 24 0C21.9126 0 19.8872 0.266529 17.9564 0.767377C20.5715 1.4809 23.3495 2.52478 26.2733 3.98672C32.3604 7.03024 37.6157 8.01019 41.8889 7.99998ZM47.8331 21.1537C41.9603 22.3134 33.8505 22.0752 24.1267 17.2133C15.036 12.6679 7.80052 12.7251 2.92068 13.8096C2.6688 13.8655 2.42285 13.9243 2.18284 13.9855C1.54395 15.375 1.03396 16.8361 0.668043 18.3534C1.05886 18.249 1.46272 18.1497 1.87939 18.0571C7.79949 16.7415 16.1641 16.7987 26.2733 21.8533C35.3641 26.3987 42.5995 26.3414 47.4794 25.257C47.6466 25.2199 47.8114 25.1815 47.9734 25.1419C47.9911 24.7636 48 24.3828 48 24C48 23.037 47.9434 22.0872 47.8331 21.1537ZM47.1898 30.2068C41.374 31.2235 33.5004 30.8333 24.1267 26.1466C15.036 21.6012 7.80052 21.6584 2.92068 22.7429C1.8375 22.9835 0.863088 23.2766 0.003516 23.5861C0.0011724 23.7238 0 23.8618 0 24C0 37.2548 10.7452 48 24 48C35.1085 48 44.4544 40.4531 47.1898 30.2068Z" fill="#7F57F1"/>
</g>
<defs>
<clipPath id="clip0_4414_46">
<rect width="48" height="48" fill="white"/>
</clipPath>
</defs>
</svg>
