<svg width="48" height="48" viewBox="0 0 48 48" fill="none" xmlns="http://www.w3.org/2000/svg">
<path d="M24 12.75C24 18.9632 18.9632 24 12.75 24H1.5V12.75C1.5 6.53679 6.53679 1.5 12.75 1.5C18.9632 1.5 24 6.53679 24 12.75Z" fill="#17CF97"/>
<path d="M24 35.25C24 29.0368 29.0368 24 35.25 24H46.5V35.25C46.5 41.4632 41.4632 46.5 35.25 46.5C29.0368 46.5 24 41.4632 24 35.25Z" fill="#17CF97"/>
<path d="M1.5 35.25C1.5 41.4632 6.53679 46.5 12.75 46.5H24V35.25C24 29.0368 18.9632 24 12.75 24C6.53679 24 1.5 29.0368 1.5 35.25Z" fill="#17CF97"/>
<path d="M46.5 12.75C46.5 6.53679 41.4632 1.5 35.25 1.5H24V12.75C24 18.9632 29.0368 24 35.25 24C41.4632 24 46.5 18.9632 46.5 12.75Z" fill="#17CF97"/>
</svg>
