<svg width="48" height="48" viewBox="0 0 48 48" fill="none" xmlns="http://www.w3.org/2000/svg">
<path d="M16.3019 6.26074H25.692L21.9228 16.7939C15.2888 17.9597 10.2148 24.3781 10.2148 32.1213C10.2148 35.6143 11.2474 38.8378 12.9899 41.4311H0.521484L11.9201 9.577C12.6367 7.5741 14.3721 6.26074 16.3019 6.26074Z" fill="#6E51C4"/>
<path d="M25.6922 6.26074L23.0433 13.6634L22.2451 6.26074H25.6922Z" fill="black" fill-opacity="0.3"/>
<path d="M31.6352 6.26074H22.2451L25.9984 16.7495C32.7644 17.7862 37.9767 24.2733 37.9767 32.1213C37.9767 35.6143 36.9441 38.8378 35.2016 41.4311H47.4156L36.017 9.57701C35.3004 7.5741 33.565 6.26074 31.6352 6.26074Z" fill="#9B7CF6"/>
<path d="M14.6279 40.4174C13.0233 38.1322 12.0664 35.2517 12.0664 32.1212C12.0664 24.6944 17.4524 18.6738 24.0964 18.6738C30.7404 18.6738 36.1264 24.6944 36.1264 32.1212C36.1264 35.2517 35.1695 38.1322 33.5649 40.4174C30.9306 38.4563 27.6512 37.2933 24.0964 37.2933C20.5416 37.2933 17.2622 38.4563 14.6279 40.4174Z" fill="#9B7CF6"/>
</svg>
