<svg width="48" height="48" viewBox="0 0 48 48" fill="none" xmlns="http://www.w3.org/2000/svg">
<g clip-path="url(#clip0_4414_18)">
<path d="M47.9333 25.7998H39.3598C31.8707 25.7998 25.7998 31.8708 25.7998 39.3598V47.9333C37.6197 47.0568 47.0568 37.6197 47.9333 25.7998Z" fill="#775732"/>
<path d="M22.2009 47.9333V39.3598C22.2009 31.8708 16.1299 25.7998 8.6409 25.7998H0.0673828C0.943783 37.6197 10.381 47.0568 22.2009 47.9333Z" fill="#775732"/>
<path d="M47.9333 22.2009C47.0568 10.381 37.6197 0.943784 25.7998 0.0673828V8.6409C25.7998 16.1299 31.8707 22.2009 39.3598 22.2009H47.9333Z" fill="#775732"/>
<path d="M22.2009 0.0673828C10.381 0.943784 0.943783 10.381 0.0673828 22.2009H8.6409C16.1299 22.2009 22.2009 16.1299 22.2009 8.6409V0.0673828Z" fill="#775732"/>
<path d="M16.2998 23.9994C19.6268 22.337 22.3382 19.6256 24.0004 16.2986C25.6628 19.6256 28.3741 22.337 31.7012 23.9994C28.3741 25.6616 25.6628 28.373 24.0004 31.7C22.3382 28.373 19.6268 25.6616 16.2998 23.9994Z" fill="#CA9352"/>
</g>
<defs>
<clipPath id="clip0_4414_18">
<rect width="48" height="48" fill="white"/>
</clipPath>
</defs>
</svg>
