<svg width="48" height="48" viewBox="0 0 48 48" fill="none" xmlns="http://www.w3.org/2000/svg">
<g clip-path="url(#clip0_4414_90)">
<path d="M24 0C10.7452 0 0 10.7452 0 24C13.2548 24 24 13.2548 24 0Z" fill="#FF4340"/>
<path d="M24 48C37.2548 48 48 37.2548 48 24C34.7452 24 24 34.7452 24 48Z" fill="#FF4340"/>
<path d="M24 0C37.2548 0 48 10.7452 48 24C34.7452 24 24 13.2548 24 0Z" fill="#36C6FF"/>
<path d="M24 48C10.7452 48 -1.15877e-06 37.2548 0 24C13.2548 24 24 34.7452 24 48Z" fill="#36C6FF"/>
</g>
<defs>
<clipPath id="clip0_4414_90">
<rect width="48" height="48" fill="white"/>
</clipPath>
</defs>
</svg>
