<svg width="48" height="48" viewBox="0 0 48 48" fill="none" xmlns="http://www.w3.org/2000/svg">
<path d="M30.8165 23.6715C30.8165 31.8423 24.1928 38.466 16.022 38.466C7.85131 38.466 1.22754 31.8423 1.22754 23.6715C1.22754 15.5007 7.85131 8.87695 16.022 8.87695C24.1928 8.87695 30.8165 15.5007 30.8165 23.6715Z" fill="#68DBFF"/>
<path d="M46.7717 23.6715C46.7717 31.8423 40.2128 38.466 32.1221 38.466C24.0315 38.466 17.4727 31.8423 17.4727 23.6715C17.4727 15.5007 24.0315 8.87695 32.1221 8.87695C40.2128 8.87695 46.7717 15.5007 46.7717 23.6715Z" fill="#FF7917"/>
<path d="M24.1118 36.0601C28.1493 33.4184 30.8167 28.8563 30.8167 23.6711C30.8167 18.4861 28.1493 13.9239 24.1118 11.2822C20.1139 13.9239 17.4727 18.4861 17.4727 23.6711C17.4727 28.8563 20.1139 33.4184 24.1118 36.0601Z" fill="#5D2C02"/>
</svg>
