<svg width="48" height="48" viewBox="0 0 48 48" fill="none" xmlns="http://www.w3.org/2000/svg">
<path fill-rule="evenodd" clip-rule="evenodd" d="M30 39.6006C31.5758 39.6006 33.1363 39.2901 34.5922 38.6871C36.0481 38.084 37.371 37.2002 38.4853 36.0859C39.5996 34.9716 40.4834 33.6487 41.0866 32.1927C41.6896 30.7369 42 29.1764 42 27.6006C42 22.8267 40.1035 18.2483 36.7279 14.8727C33.3523 11.497 28.7738 9.60059 24 9.60059C19.2262 9.60059 14.6477 11.497 11.2721 14.8727C7.89642 18.2483 6 22.8267 6 27.6006C6 29.1764 6.31039 30.7369 6.91344 32.1927C7.5165 33.6487 8.40042 34.9716 9.51472 36.0859C10.629 37.2002 11.9519 38.084 13.4078 38.6871C14.8637 39.2901 16.4242 39.6006 18 39.6006H30ZM24 14.4006C20.4991 14.4006 17.1416 15.7913 14.6662 18.2667C12.1907 20.7422 10.8 24.0997 10.8 27.6006C10.8 28.5461 10.9862 29.4823 11.3481 30.3559C11.7099 31.2295 12.2402 32.0232 12.9089 32.6917C13.5774 33.3603 14.3711 33.8906 15.2447 34.2525C16.1183 34.6143 17.0545 34.8006 18 34.8006H30C30.9455 34.8006 31.8817 34.6143 32.7553 34.2525C33.6289 33.8906 34.4226 33.3603 35.0911 32.6917C35.7598 32.0232 36.29 31.2295 36.652 30.3559C37.0138 29.4823 37.2 28.5461 37.2 27.6006C37.2 24.0997 35.8093 20.7422 33.3338 18.2667C30.8584 15.7913 27.5009 14.4006 24 14.4006Z" fill="#3064E8"/>
<path fill-rule="evenodd" clip-rule="evenodd" d="M15.6 45.6006C13.5514 45.6006 11.5229 45.135 9.63014 44.2304C7.7375 43.3259 6.01776 42 4.56913 40.3285C3.12056 38.657 1.97147 36.6728 1.18748 34.4889C0.403508 32.3051 0 29.9643 0 27.6006C0 21.2354 2.52857 15.1309 7.02944 10.63C11.5303 6.12915 17.6348 3.60059 24 3.60059C30.3652 3.60059 36.4697 6.12915 40.9705 10.63C45.4715 15.1309 48 21.2354 48 27.6006C48 29.9643 47.5964 32.3051 46.8125 34.4889C46.0285 36.6728 44.8794 38.657 43.4309 40.3285C41.9822 42 40.2625 43.3259 38.3699 44.2304C36.4771 45.135 34.4486 45.6006 32.4 45.6006H15.6ZM10.4235 14.0241C14.0243 10.4234 18.9078 8.40059 24 8.40059C29.0922 8.40059 33.9757 10.4234 37.5764 14.0241C41.1772 17.6249 43.2 22.5084 43.2 27.6006C43.2 29.4221 42.8885 31.2134 42.2948 32.8671C41.7012 34.5207 40.8451 35.9831 39.8035 37.1849C38.7631 38.3853 37.5654 39.2948 36.3 39.8996C35.0377 40.503 33.7148 40.8006 32.4 40.8006H15.6C14.2852 40.8006 12.9623 40.503 11.7 39.8996C10.4346 39.2948 9.23688 38.3853 8.19644 37.1849C7.1549 35.9831 6.29884 34.5207 5.7052 32.8671C5.11153 31.2134 4.8 29.4221 4.8 27.6006C4.8 22.5084 6.82285 17.6249 10.4235 14.0241Z" fill="#3064E8"/>
<path d="M30 33.6006H23.9947C23.5915 33.6002 23.1913 33.5592 22.8 33.4794C22.0416 33.3246 21.3164 33.0236 20.6666 32.5893C19.6799 31.9301 18.9108 30.9931 18.4567 29.8967C18.3095 29.5411 18.1974 29.174 18.1212 28.8006C17.9623 28.0224 17.9588 27.2165 18.1153 26.43C18.3468 25.2661 18.9182 24.197 19.7574 23.358C20.5964 22.5188 21.6655 21.9474 22.8294 21.7159C22.8659 21.7086 22.9022 21.7017 22.9387 21.6951C23.2904 21.632 23.6456 21.6006 24 21.6006C24.7842 21.6006 25.5646 21.7543 26.2961 22.0573C27.3924 22.5114 28.3295 23.2805 28.9888 24.2671C29.6482 25.2539 30 26.4139 30 27.6006H25.2C25.2 27.3632 25.1297 27.1313 24.9978 26.9339C24.8659 26.7366 24.6785 26.5827 24.4592 26.4919C24.24 26.4011 23.9987 26.3773 23.7659 26.4236C23.5331 26.4699 23.3192 26.5842 23.1515 26.7521C22.9836 26.9198 22.8694 27.1337 22.823 27.3665C22.7767 27.5993 22.8005 27.8406 22.8913 28.0598C22.9822 28.2791 23.136 28.4665 23.3333 28.5984C23.5307 28.7303 23.7626 28.8006 24 28.8006H30C30.1576 28.8006 30.3137 28.7695 30.4592 28.7093C30.6048 28.6489 30.737 28.5606 30.8485 28.4491C30.96 28.3376 31.0483 28.2054 31.1087 28.0598C31.1689 27.9143 31.2 27.7581 31.2 27.6006C31.2 25.691 30.4415 23.8597 29.0911 22.5095C27.7409 21.1591 25.9096 20.4006 24 20.4006C23.7929 20.4006 23.5867 20.4095 23.382 20.4271C22.8788 20.4704 22.3842 20.5664 21.906 20.7119C21.4355 20.8548 20.9808 21.0457 20.5492 21.2814C20.0548 21.5514 19.5906 21.8802 19.1676 22.2632C19.0795 22.3429 18.9932 22.425 18.9089 22.5095C18.3181 23.1001 17.8406 23.783 17.4904 24.5241C17.3153 24.8947 17.1719 25.2798 17.0622 25.6753C16.9367 26.1275 16.8551 26.5931 16.8199 27.0659C16.8067 27.2432 16.8 27.4215 16.8 27.6006C16.8 28.5415 16.9844 29.4781 17.348 30.3559C17.8931 31.6716 18.8159 32.796 19.9999 33.5871C20.0066 33.5917 20.0134 33.5961 20.0201 33.6006H18C17.2121 33.6006 16.4318 33.4454 15.7039 33.1439C14.976 32.8423 14.3146 32.4003 13.7574 31.8432C13.2002 31.286 12.7583 30.6246 12.4567 29.8967C12.1552 29.1687 12 28.3885 12 27.6006C12 24.4179 13.2643 21.3657 15.5147 19.1153C17.7652 16.8649 20.8174 15.6006 24 15.6006C27.1826 15.6006 30.2348 16.8649 32.4853 19.1153C34.7357 21.3657 36 24.4179 36 27.6006C36 28.3885 35.8448 29.1687 35.5433 29.8967C35.2417 30.6246 34.7998 31.286 34.2426 31.8432C33.6854 32.4003 33.024 32.8423 32.2961 33.1439C31.5682 33.4454 30.7879 33.6006 30 33.6006Z" fill="#3064E8"/>
</svg>
