<svg width="143" height="32" viewBox="0 0 143 32" fill="none" xmlns="http://www.w3.org/2000/svg">
<g clip-path="url(#clip0_15968_21228)">
<path d="M7.63988 6.08621C8.66009 6.08621 9.51708 5.22923 9.51708 4.20901C9.51708 3.18879 8.66009 2.33181 7.63988 2.33181C6.61966 2.33181 5.76267 3.18879 5.76267 4.20901C5.76267 5.22923 6.61966 6.08621 7.63988 6.08621ZM6.61966 19.3491C6.61966 19.6347 6.86451 19.8796 7.15017 19.8796C7.43583 19.8796 7.68069 19.6347 7.68069 19.3491C7.68069 19.0634 7.43583 18.8185 7.15017 18.8185C6.86451 18.8185 6.61966 19.0634 6.61966 19.3491ZM10.3741 8.45312C10.823 8.45312 11.1494 8.08584 11.1494 7.67776C11.1494 7.22886 10.7822 6.90239 10.3741 6.90239C9.92517 6.90239 9.5987 7.26967 9.5987 7.67776C9.5987 8.08584 9.92517 8.45312 10.3741 8.45312ZM4.21194 15.513C5.23216 15.513 6.08914 14.6561 6.08914 13.6358C6.08914 12.6156 5.23216 11.7586 4.21194 11.7586C3.19172 11.7586 2.33474 12.6156 2.33474 13.6358C2.37555 14.6561 3.19172 15.513 4.21194 15.513ZM1.51856 11.1057C1.96746 11.1057 2.29393 10.7384 2.29393 10.3303C2.29393 9.88143 1.92665 9.55496 1.51856 9.55496C1.06967 9.55496 0.743198 9.92224 0.743198 10.3303C0.743198 10.7792 1.06967 11.1057 1.51856 11.1057ZM1.2329 12.8197C1.2329 12.534 0.98805 12.2891 0.702389 12.2891C0.416728 12.2891 0.171875 12.534 0.171875 12.8197C0.171875 13.1053 0.416728 13.3502 0.702389 13.3502C0.98805 13.3502 1.2329 13.1053 1.2329 12.8197ZM3.72224 8.41231C4.45679 8.41231 5.02812 7.84099 5.02812 7.10643C5.02812 6.37188 4.45679 5.80055 3.72224 5.80055C2.98768 5.80055 2.41636 6.37188 2.41636 7.10643C2.41636 7.84099 2.98768 8.41231 3.72224 8.41231ZM19.5968 1.22997C19.8825 1.22997 20.1274 0.98512 20.1274 0.699459C20.1274 0.413798 19.8825 0.168945 19.5968 0.168945C19.3112 0.168945 19.0663 0.413798 19.0663 0.699459C19.0663 0.98512 19.3112 1.22997 19.5968 1.22997ZM5.31378 19.145C5.31378 17.8799 4.29356 16.8597 3.02849 16.8597C1.76342 16.8597 0.743198 17.8799 0.743198 19.145C0.743198 20.4101 1.76342 21.4303 3.02849 21.4303C4.29356 21.4303 5.31378 20.4101 5.31378 19.145ZM28.2075 9.51415C29.2277 9.51415 30.0847 8.65717 30.0847 7.63695C30.0847 6.61673 29.2277 5.75974 28.2075 5.75974C27.1873 5.75974 26.3303 6.61673 26.3303 7.63695C26.3303 8.65717 27.1465 9.51415 28.2075 9.51415ZM24.0042 22.4097C24.0042 23.1443 24.5755 23.7156 25.3101 23.7156C26.0446 23.7156 26.6159 23.1443 26.6159 22.4097C26.6159 21.6752 26.0446 21.1038 25.3101 21.1038C24.5755 21.1038 24.0042 21.6752 24.0042 22.4097ZM25.3101 5.02519C26.0446 5.02519 26.6159 4.45386 26.6159 3.71931C26.6159 2.98475 26.0446 2.41343 25.3101 2.41343C24.5755 2.41343 24.0042 2.98475 24.0042 3.71931C24.0042 4.45386 24.5755 5.02519 25.3101 5.02519ZM22.4126 8.41231C23.1472 8.41231 23.7185 7.84099 23.7185 7.10643C23.7185 6.37188 23.1472 5.80055 22.4126 5.80055C21.6781 5.80055 21.1068 6.37188 21.1068 7.10643C21.1068 7.84099 21.6781 8.41231 22.4126 8.41231ZM27.1056 13.0237C27.1056 14.2888 28.1259 15.309 29.3909 15.309C30.656 15.309 31.6762 14.2888 31.6762 13.0237C31.6762 11.7586 30.656 10.7384 29.3909 10.7384C28.1259 10.7384 27.1056 11.7586 27.1056 13.0237ZM25.7998 12.8197C25.7998 12.534 25.5549 12.2891 25.2693 12.2891C24.9836 12.2891 24.7387 12.534 24.7387 12.8197C24.7387 13.1053 24.9836 13.3502 25.2693 13.3502C25.5549 13.3502 25.7998 13.1053 25.7998 12.8197ZM22.0454 2.25019C22.4943 2.25019 22.8207 1.88291 22.8207 1.47483C22.8207 1.06674 22.4535 0.699459 22.0454 0.699459C21.5965 0.699459 21.27 1.06674 21.27 1.47483C21.27 1.88291 21.6373 2.25019 22.0454 2.25019ZM24.4939 11.1057C24.9428 11.1057 25.2693 10.7384 25.2693 10.3303C25.2693 9.88143 24.902 9.55496 24.4939 9.55496C24.0858 9.55496 23.7185 9.92224 23.7185 10.3303C23.7185 10.7792 24.0858 11.1057 24.4939 11.1057ZM8.41524 9.759C8.41524 9.02444 7.84392 8.45312 7.10936 8.45312C6.3748 8.45312 5.80348 9.02444 5.80348 9.759C5.80348 10.4936 6.3748 11.0649 7.10936 11.0649C7.84392 11.0649 8.41524 10.4936 8.41524 9.759ZM22.0454 23.7156C21.5965 23.7156 21.27 24.0829 21.27 24.491C21.27 24.9399 21.6373 25.2663 22.0454 25.2663C22.4943 25.2663 22.8207 24.899 22.8207 24.491C22.8207 24.0829 22.4943 23.7156 22.0454 23.7156ZM19.3928 26.8579C18.1277 26.8579 17.1075 27.8781 17.1075 29.1432C17.1075 30.4082 18.1277 31.4284 19.3928 31.4284C20.6579 31.4284 21.6781 30.4082 21.6781 29.1432C21.6781 27.8781 20.6579 26.8579 19.3928 26.8579ZM24.7796 26.0825C23.7593 26.0825 22.9023 26.9395 22.9023 27.9597C22.9023 28.9799 23.7593 29.8369 24.7796 29.8369C25.7998 29.8369 26.6568 28.9799 26.6568 27.9597C26.6568 26.9395 25.7998 26.0825 24.7796 26.0825ZM19.0663 25.2663C19.0663 25.552 19.3112 25.7968 19.5968 25.7968C19.8825 25.7968 20.1274 25.552 20.1274 25.2663C20.1274 24.9807 19.8825 24.7358 19.5968 24.7358C19.3112 24.7766 19.0663 24.9807 19.0663 25.2663ZM31.717 18.8185C31.4314 18.8185 31.1865 19.0634 31.1865 19.3491C31.1865 19.6347 31.4314 19.8796 31.717 19.8796C32.0027 19.8796 32.2476 19.6347 32.2476 19.3491C32.2476 19.0634 31.9619 18.8185 31.717 18.8185ZM30.9009 21.063C30.452 21.063 30.1255 21.4303 30.1255 21.8384C30.1255 22.2873 30.4928 22.6138 30.9009 22.6138C31.3498 22.6138 31.6762 22.2465 31.6762 21.8384C31.6762 21.3895 31.3498 21.063 30.9009 21.063ZM18.5358 6.08621C19.556 6.08621 20.413 5.22923 20.413 4.20901C20.413 3.18879 19.556 2.33181 18.5358 2.33181C17.5156 2.33181 16.6586 3.18879 16.6586 4.20901C16.6586 5.22923 17.5156 6.08621 18.5358 6.08621ZM28.2075 16.6557C27.1873 16.6557 26.3303 17.5127 26.3303 18.5329C26.3303 19.5531 27.1873 20.4101 28.2075 20.4101C29.2277 20.4101 30.0847 19.5531 30.0847 18.5329C30.0439 17.5127 29.2277 16.6557 28.2075 16.6557ZM4.21194 22.6546C3.19172 22.6546 2.33474 23.5116 2.33474 24.5318C2.33474 25.552 3.19172 26.409 4.21194 26.409C5.23216 26.409 6.08914 25.552 6.08914 24.5318C6.08914 23.5116 5.27297 22.6546 4.21194 22.6546ZM28.6972 23.7564C27.9626 23.7564 27.3913 24.3277 27.3913 25.0623C27.3913 25.7968 27.9626 26.3682 28.6972 26.3682C29.4317 26.3682 30.0031 25.7968 30.0031 25.0623C30.0031 24.3277 29.4317 23.7564 28.6972 23.7564ZM7.92554 21.063C7.47664 21.063 7.15017 21.4303 7.15017 21.8384C7.15017 22.2873 7.51745 22.6138 7.92554 22.6138C8.33362 22.6138 8.7009 22.2465 8.7009 21.8384C8.7009 21.3895 8.33362 21.063 7.92554 21.063ZM10.0068 23.7564C9.27223 23.7564 8.7009 24.3277 8.7009 25.0623C8.7009 25.7968 9.27223 26.3682 10.0068 26.3682C10.7413 26.3682 11.3127 25.7968 11.3127 25.0623C11.3127 24.3277 10.7413 23.7564 10.0068 23.7564ZM10.3741 29.9185C9.92517 29.9185 9.5987 30.2858 9.5987 30.6939C9.5987 31.102 9.96597 31.4693 10.3741 31.4693C10.823 31.4693 11.1494 31.102 11.1494 30.6939C11.1494 30.2858 10.7822 29.9185 10.3741 29.9185ZM7.10936 27.1435C6.3748 27.1435 5.80348 27.7149 5.80348 28.4494C5.80348 29.184 6.3748 29.7553 7.10936 29.7553C7.84392 29.7553 8.41524 29.184 8.41524 28.4494C8.41524 27.7149 7.84392 27.1435 7.10936 27.1435ZM12.3329 6.90239C12.3329 7.18805 12.5777 7.4329 12.8634 7.4329C13.1491 7.4329 13.3939 7.18805 13.3939 6.90239C13.3939 6.61673 13.1491 6.37188 12.8634 6.37188C12.5369 6.37188 12.3329 6.61673 12.3329 6.90239ZM15.3119 2.98475C15.3119 1.71968 14.2917 0.699459 13.0266 0.699459C11.7616 0.699459 10.7413 1.71968 10.7413 2.98475C10.7413 4.24982 11.7616 5.27004 13.0266 5.27004C14.2917 5.31085 15.3119 4.29063 15.3119 2.98475ZM12.8226 30.9387C12.5369 30.9387 12.2921 31.1836 12.2921 31.4693C12.2921 31.7549 12.5369 31.9998 12.8226 31.9998C13.1082 31.9998 13.3531 31.7549 13.3531 31.4693C13.3531 31.1836 13.1082 30.9387 12.8226 30.9387ZM13.8836 26.0825C12.8634 26.0825 12.0064 26.9395 12.0064 27.9597C12.0064 28.9799 12.8634 29.8369 13.8836 29.8369C14.9038 29.8369 15.7608 28.9799 15.7608 27.9597C15.7608 26.9395 14.9038 26.0825 13.8836 26.0825Z" fill="#FF5106"/>
<path d="M46.1314 9.93504C47.8058 9.93504 49.1693 10.3616 50.2218 11.2148C51.2742 12.068 51.8483 13.2041 51.944 14.6234H48.6191C48.3958 13.2041 47.5586 12.4945 46.1075 12.4945C45.2144 12.4945 44.5087 12.8613 43.9905 13.5949C43.4723 14.3284 43.2131 15.3012 43.2131 16.5131C43.2131 17.6773 43.4603 18.6181 43.9546 19.3357C44.449 20.0533 45.1427 20.4121 46.0357 20.4121C47.5825 20.4121 48.4835 19.5749 48.7387 17.9005H52.0158C51.7925 19.543 51.1586 20.7989 50.1141 21.668C49.0696 22.537 47.718 22.9716 46.0596 22.9716C44.2258 22.9716 42.7268 22.3856 41.5626 21.2135C40.3984 20.0414 39.8164 18.5145 39.8164 16.6327C39.8164 14.5915 40.3905 12.965 41.5387 11.753C42.6868 10.5409 44.2177 9.93504 46.1314 9.93504ZM59.9334 9.93504C61.9108 9.93504 63.4736 10.537 64.6218 11.741C65.77 12.945 66.3441 14.5199 66.3441 16.4653C66.3441 18.4268 65.758 20.0014 64.5859 21.1896C63.4138 22.3777 61.8631 22.9716 59.9334 22.9716C57.9719 22.9716 56.4171 22.3696 55.2689 21.1656C54.1208 19.9617 53.5467 18.3949 53.5467 16.4653C53.5467 14.4719 54.1327 12.8851 55.3048 11.7051C56.4769 10.5252 58.0198 9.93504 59.9334 9.93504ZM56.9434 16.4653C56.9434 17.7251 57.1985 18.6978 57.7088 19.3836C58.2191 20.0694 58.9607 20.4121 59.9334 20.4121C60.9381 20.4121 61.6916 20.0613 62.1939 19.3597C62.6962 18.658 62.9474 17.6932 62.9474 16.4653C62.9474 15.1895 62.6882 14.2088 62.17 13.5231C61.6517 12.8374 60.8982 12.4945 59.9095 12.4945C58.9527 12.4945 58.2192 12.8374 57.7088 13.5231C57.1985 14.2088 56.9434 15.1895 56.9434 16.4653ZM80.6006 5.55762V22.6367H77.3713V21.058H77.3235C76.5899 22.3338 75.3381 22.9716 73.568 22.9716C71.8616 22.9716 70.5103 22.3497 69.5135 21.1058C68.5167 19.862 68.0185 18.2753 68.0185 16.3457C68.0185 14.464 68.5248 12.9251 69.5374 11.7291C70.55 10.533 71.8697 9.93504 73.4962 9.93504C74.2457 9.93504 74.9514 10.0905 75.6132 10.4015C76.2749 10.7125 76.7893 11.1709 77.1561 11.7769H77.2039V5.55762H80.6006ZM71.4152 16.4414C71.4152 17.5736 71.6823 18.5185 72.2165 19.2759C72.7507 20.0334 73.4803 20.4121 74.4052 20.4121C75.378 20.4121 76.1075 20.0573 76.5939 19.3477C77.0803 18.6381 77.3235 17.6613 77.3235 16.4175C77.3235 15.1736 77.0683 14.2088 76.558 13.5231C76.0477 12.8374 75.3222 12.4945 74.3813 12.4945C73.4085 12.4945 72.671 12.8533 72.1686 13.5709C71.6663 14.2885 71.4152 15.2454 71.4152 16.4414ZM88.877 9.93504C90.0412 9.93504 91.0777 10.2061 91.9867 10.7483C92.8956 11.2905 93.6093 12.0759 94.1275 13.1045C94.6458 14.133 94.9049 15.3171 94.9049 16.6566C94.9049 16.7842 94.897 16.9915 94.881 17.2786H85.9587C85.9906 18.2673 86.2498 19.0367 86.7361 19.5869C87.2225 20.137 87.968 20.4121 88.9727 20.4121C89.5946 20.4121 90.1647 20.2566 90.683 19.9457C91.2013 19.6347 91.5322 19.256 91.6757 18.8095H94.6657C93.7886 21.5842 91.8591 22.9716 88.877 22.9716C87.7448 22.9556 86.6963 22.7085 85.7315 22.2301C84.7666 21.7517 83.9972 21.0062 83.4232 19.9935C82.8491 18.9809 82.562 17.8048 82.562 16.4653C82.562 15.2055 82.8531 14.0572 83.4351 13.0207C84.0172 11.9843 84.7906 11.2108 85.7554 10.7005C86.7202 10.1901 87.7608 9.93504 88.877 9.93504ZM91.4843 15.1258C91.3249 14.2008 91.0299 13.5311 90.5993 13.1164C90.1687 12.7018 89.5548 12.4945 88.7574 12.4945C87.9282 12.4945 87.2744 12.7297 86.796 13.2002C86.3175 13.6706 86.0385 14.3125 85.9587 15.1258H91.4843ZM103.851 9.93504C105.558 9.93504 106.921 10.533 107.942 11.7291C108.962 12.9251 109.472 14.5438 109.472 16.5849C109.472 18.4507 108.982 19.9816 108.001 21.1776C107.021 22.3736 105.701 22.9716 104.043 22.9716C102.416 22.9716 101.18 22.3497 100.335 21.1058H100.287V26.9902H96.8903V10.2699H100.12V11.8487H100.167C100.981 10.5729 102.209 9.93504 103.851 9.93504ZM100.167 16.4892C100.167 17.7011 100.423 18.658 100.933 19.3597C101.443 20.0614 102.177 20.4121 103.134 20.4121C104.122 20.4121 104.86 20.0613 105.346 19.3597C105.833 18.658 106.076 17.7011 106.076 16.4892C106.076 15.2454 105.813 14.2686 105.286 13.559C104.76 12.8494 104.027 12.4945 103.086 12.4945C102.145 12.4945 101.423 12.8454 100.921 13.547C100.419 14.2487 100.167 15.2294 100.167 16.4892ZM114.998 5.55762V22.6367H111.601V5.55762H114.998ZM121.074 10.2699V17.2786C121.074 18.2354 121.225 18.9769 121.528 19.5032C121.831 20.0294 122.405 20.2925 123.251 20.2925C124.191 20.2925 124.865 20.0135 125.272 19.4553C125.678 18.8972 125.882 18.0042 125.882 16.7763V10.2699H129.278V22.6367H126.049V20.9145H125.977C125.132 22.2859 123.864 22.9716 122.174 22.9716C120.563 22.9716 119.411 22.561 118.718 21.7397C118.024 20.9185 117.677 19.6547 117.677 17.9484V10.2699H121.074ZM142.004 10.2699V12.8294L135.57 20.0773H142.459V22.6367H131.096V20.0773L137.531 12.8294H131.575V10.2699H142.004Z" fill="#0C0C0C"/>
</g>
<defs>
<clipPath id="clip0_15968_21228">
<rect width="142.682" height="32" fill="white"/>
</clipPath>
</defs>
</svg>
