<svg width="16" height="16" viewBox="0 0 16 16" fill="none" xmlns="http://www.w3.org/2000/svg">
<path d="M4.68516 5.42773C4.68516 3.7586 6.04375 2.4 7.71289 2.4C9.38203 2.4 10.7406 3.7586 10.7406 5.42773C10.7406 7.09687 9.38203 8.45547 7.71289 8.45547C6.04375 8.45547 4.68516 7.09687 4.68516 5.42773ZM8.47461 10.0172C9.68648 10.0172 10.8283 10.4979 11.6927 11.3755C12.5487 12.2447 13.0208 13.3881 13.0257 14.6H2.40004C2.40496 13.3881 2.87709 12.2447 3.73312 11.3755L3.44813 11.0948L3.73312 11.3755C4.59745 10.4979 5.73933 10.0172 6.95117 10.0172H8.47461Z" stroke="#666666" stroke-width="0.8"/>
</svg>
