<svg width="50" height="50" viewBox="0 0 50 50" fill="none" xmlns="http://www.w3.org/2000/svg">
<path d="M46.9996 48.9994C48.1041 48.9994 48.9996 48.104 48.9996 46.9994V29.5374C48.9996 29.3164 48.8205 29.1374 48.5996 29.1374H42.1063C41.8333 29.1374 41.6405 28.8699 41.7268 28.6108L41.8981 28.0971C42.4203 26.5371 41.5794 24.8489 40.0187 24.3258C39.7125 24.2231 39.3916 24.1711 39.0686 24.1719C37.4234 24.1694 36.0877 25.5018 36.0852 27.147C36.0845 27.47 36.1365 27.7909 36.2392 28.0971L36.4104 28.6109C36.4968 28.8699 36.304 29.1374 36.031 29.1374H29.5377C29.3168 29.1374 29.1377 29.3164 29.1377 29.5374V36.0306C29.1377 36.3036 29.4052 36.4964 29.6642 36.4101L30.1779 36.2388C31.7379 35.7166 33.4262 36.5575 33.9492 38.1182C34.0519 38.4244 34.1039 38.7453 34.1032 39.0683C34.1056 40.7135 32.7732 42.0493 31.128 42.0517C30.805 42.0525 30.4841 42.0005 30.1779 41.8978L29.6642 41.7265C29.4052 41.6401 29.1377 41.8329 29.1377 42.106V48.5994C29.1377 48.8203 29.3168 48.9994 29.5377 48.9994H46.9996Z" stroke="white"/>
<path d="M29.1384 29.1377H22.245C21.972 29.1377 21.7792 29.4052 21.8655 29.6642L22.0368 30.1779C22.1395 30.4841 22.1915 30.8051 22.1907 31.128C22.1883 32.7732 20.8525 34.1056 19.2073 34.1032C18.8843 34.1039 18.5634 34.0519 18.2572 33.9492C16.6965 33.4262 15.8556 31.7379 16.3778 30.1779L16.5491 29.6642C16.6354 29.4052 16.4427 29.1377 16.1696 29.1377H11.2764C10.1718 29.1377 9.27637 30.0331 9.27637 31.1377V46.9998C9.27637 48.1043 10.1718 48.9998 11.2764 48.9998H29.1384" stroke="white"/>
<path d="M48.9996 29.1384V11.2764C48.9996 10.1718 48.1041 9.27637 46.9996 9.27637H29.5377C29.3168 9.27637 29.1377 9.45545 29.1377 9.67637V16.1698C29.1377 16.4428 29.4052 16.6356 29.6642 16.5493L30.1779 16.378C30.4841 16.2753 30.805 16.2233 31.128 16.2241C32.7732 16.2265 34.1056 17.5623 34.1032 19.2075C34.1039 19.5304 34.0519 19.8514 33.9492 20.1576C33.4262 21.7183 31.7379 22.5592 30.1779 22.037L29.6642 21.8657C29.4052 21.7794 29.1377 21.9721 29.1377 22.2452V29.1384" stroke="white"/>
<path fill-rule="evenodd" clip-rule="evenodd" d="M9.04975 22.2197C8.70285 23.2561 9.26134 24.3778 10.2986 24.7254C10.5016 24.7935 10.7145 24.828 10.9286 24.8275L10.9324 24.8275C12.0251 24.8291 12.9127 23.9441 12.9143 22.8509C12.9149 22.6369 12.8804 22.4233 12.8123 22.2203L12.8117 22.2186L12.6405 21.7048C12.3383 20.7983 13.013 19.8621 13.9686 19.8621H18.8619C19.4142 19.8621 19.8619 19.4143 19.8619 18.8621V13.9688C19.8619 13.0132 20.7981 12.3384 21.7046 12.6407L22.2195 12.8123C23.2559 13.1592 24.3776 12.6007 24.7252 11.5634C24.7933 11.3605 24.8279 11.1475 24.8273 10.9335L24.8273 10.9296C24.829 9.83696 23.9439 8.94934 22.8507 8.94772C22.6367 8.94721 22.4231 8.98167 22.2201 9.04974L22.2184 9.05033L21.7046 9.2216C20.7981 9.52381 19.8619 8.84905 19.8619 7.89345V3C19.8619 2.44772 19.4142 2 18.8619 2H3C2.44772 2 2 2.44772 2 3V18.8621C2 19.4143 2.44772 19.8621 3 19.8621H7.89326C8.84886 19.8621 9.52362 20.7983 9.22141 21.7048L9.04975 22.2197ZM21.9021 8.10166L21.3884 8.27292C21.1294 8.35927 20.8619 8.16648 20.8619 7.89345V3C20.8619 1.89543 19.9664 1 18.8619 1H3C1.89543 1 1 1.89543 1 3V18.8621C1 19.9666 1.89543 20.8621 3 20.8621H7.89326C8.16629 20.8621 8.35908 21.1295 8.27273 21.3886L8.10147 21.9023C7.57928 23.4623 8.42013 25.1506 9.98088 25.6736C10.2871 25.7763 10.608 25.8283 10.9309 25.8275C12.5762 25.83 13.9119 24.4976 13.9143 22.8524C13.9151 22.5294 13.8631 22.2085 13.7604 21.9023L13.5891 21.3886C13.5028 21.1295 13.6956 20.8621 13.9686 20.8621H18.8619C19.9664 20.8621 20.8619 19.9666 20.8619 18.8621V13.9688C20.8619 13.6958 21.1294 13.503 21.3884 13.5893L21.9021 13.7606C23.4621 14.2828 25.1504 13.4419 25.6734 11.8812C25.7761 11.575 25.8281 11.2541 25.8273 10.9311C25.8298 9.28591 24.4974 7.95016 22.8522 7.94772C22.5292 7.94695 22.2083 7.99895 21.9021 8.10166Z" fill="white"/>
</svg>
