<svg width="50" height="50" viewBox="0 0 50 50" fill="none" xmlns="http://www.w3.org/2000/svg">
<path d="M33.681 36.6286L31.6095 34.5571L31.6095 34.5571L31.256 34.9107L30.9024 35.2642C30.9024 35.2642 30.9024 35.2642 30.9024 35.2642C30.903 35.2648 30.9036 35.2654 30.9042 35.266C31.9226 36.2865 31.922 37.9394 30.9023 38.9592C29.8819 39.9795 28.2276 39.9795 27.2073 38.9592L24.4461 36.198L24.4455 36.1974L23.7379 36.904C24.7551 37.9246 24.754 39.5765 23.7347 40.5958C22.7144 41.6161 21.0601 41.6161 20.0398 40.5958L20.0398 40.5958L18.677 39.2332L18.677 39.2332L4.80707 25.3635L4.66063 25.217L4.45353 25.217L1.46486 25.2169C0.932002 25.2169 0.5 24.7849 0.5 24.2521V9.60364C0.5 9.0708 0.932002 8.63879 1.46484 8.63879H19.5539L14.3406 13.8521C12.4388 15.7539 12.422 18.8418 14.3196 20.7529L14.3196 20.7529C17.5592 24.0153 22.8479 24.0224 26.0963 20.774L29.7215 17.1488C29.9069 16.9634 30.2099 16.9633 30.3954 17.1487C30.3954 17.1487 30.3954 17.1487 30.3954 17.1487L43.8277 30.5809L43.8498 30.603C44.8701 31.6234 44.8701 33.2777 43.8498 34.298C42.8294 35.3184 41.1751 35.3184 40.1547 34.298L38.0831 32.2264L37.7296 32.58L37.376 32.9336C38.3964 33.9539 38.3964 35.6082 37.376 36.6286C36.3557 37.649 34.7014 37.649 33.681 36.6286Z" stroke="white"/>
<path d="M44.7167 25.9127L33.1741 14.3701C31.4533 12.6494 28.6634 12.6494 26.9426 14.3701L23.3174 17.9953C21.6059 19.7069 18.8308 19.7069 17.1193 17.9953C16.7425 17.6185 16.7425 17.0077 17.1193 16.6308L23.1124 10.6377C24.3922 9.3579 26.128 8.63893 27.9379 8.63892H48.5351C49.0679 8.63892 49.4999 9.07092 49.4999 9.60376V24.2523C49.4999 24.7851 49.0679 25.2171 48.5351 25.2171H45.6847H45.5452L45.4259 25.2893L44.9579 25.5724L44.7166 25.7184L44.7167 25.9127Z" stroke="white"/>
</svg>
