<svg width="50" height="50" viewBox="0 0 50 50" fill="none" xmlns="http://www.w3.org/2000/svg">
<path d="M31.6797 39.8491L37.8562 46.0256C38.0044 46.1739 38.1902 46.2792 38.3936 46.3301C38.597 46.3811 38.8104 46.3759 39.0111 46.315C39.2117 46.2541 39.3921 46.1399 39.5329 45.9846C39.6737 45.8292 39.7697 45.6385 39.8106 45.4328L40.0921 44.0302C40.5331 41.8333 42.2503 40.1162 44.4472 39.6752L45.8498 39.3936C46.0554 39.3527 46.2461 39.2568 46.4015 39.116C46.5569 38.9751 46.6711 38.7948 46.7319 38.5941C46.7928 38.3935 46.798 38.18 46.7471 37.9766C46.6961 37.7732 46.5909 37.5875 46.4426 37.4392L41.1143 32.1133" stroke="white"/>
<path d="M19.1025 39.8491L12.926 46.0256C12.7778 46.1739 12.5921 46.2792 12.3887 46.3301C12.1853 46.3811 11.9718 46.3759 11.7712 46.315C11.5705 46.2541 11.3901 46.1399 11.2493 45.9846C11.1085 45.8292 11.0125 45.6385 10.9717 45.4328L10.6901 44.0302C10.2491 41.8333 8.53194 40.1162 6.33505 39.6752L4.93247 39.3936C4.72681 39.3527 4.53611 39.2568 4.38074 39.116C4.22537 38.9751 4.11115 38.7948 4.05029 38.5941C3.98942 38.3935 3.9842 38.18 4.03517 37.9766C4.08613 37.7732 4.19138 37.5875 4.33967 37.4392L9.66795 32.1133" stroke="white"/>
<path d="M7.30371 22.5251C7.30371 12.5846 15.3884 4.5 25.3288 4.5C35.2692 4.5 43.3539 12.5846 43.3539 22.5251C43.3539 32.4655 35.2692 40.5502 25.3288 40.5502C15.3884 40.5502 7.30371 32.4655 7.30371 22.5251Z" stroke="white"/>
<path fill-rule="evenodd" clip-rule="evenodd" d="M27.0616 17.2975L25.5485 12.4371C25.367 11.8543 24.633 11.8543 24.4515 12.4371L22.9384 17.2975C22.6037 18.3724 21.6263 19.1402 20.4803 19.1402H15.5837C15.3276 19.1402 15.1234 19.2939 15.0352 19.5773C14.9461 19.8634 15.0221 20.1482 15.2588 20.3276L19.2203 23.3315C20.1206 24.0142 20.4778 25.2011 20.1451 26.2699L18.6319 31.1303C18.5304 31.4563 18.6514 31.7258 18.8555 31.8806C19.0533 32.0306 19.2841 32.0483 19.5052 31.8806L23.4667 28.8767C24.378 28.1858 25.622 28.1858 26.5333 28.8767L30.4948 31.8806C30.7159 32.0483 30.9467 32.0306 31.1445 31.8806C31.3486 31.7258 31.4696 31.4563 31.3681 31.1303L29.8549 26.2699C29.5222 25.2011 29.8794 24.0142 30.7797 23.3315L34.7412 20.3276C34.9779 20.1482 35.0539 19.8634 34.9648 19.5773C34.8766 19.2939 34.6724 19.1402 34.4163 19.1402H29.5197C28.3737 19.1402 27.3963 18.3724 27.0616 17.2975ZM26.5033 12.1399C26.0301 10.62 23.9699 10.62 23.4967 12.1399L21.9836 17.0003C21.772 17.68 21.1651 18.1402 20.4803 18.1402H15.5837C14.0525 18.1402 13.4158 20.1851 14.6546 21.1244L18.6161 24.1283C19.1701 24.5484 19.4019 25.293 19.1903 25.9727L17.6771 30.8331C17.204 32.3529 18.8707 33.6168 20.1094 32.6775L24.0709 29.6736C24.6249 29.2535 25.3751 29.2535 25.9291 29.6736L29.8906 32.6775C31.1293 33.6168 32.796 32.3529 32.3229 30.8331L30.8097 25.9727C30.5981 25.293 30.8299 24.5484 31.3839 24.1283L35.3454 21.1244C36.5842 20.1851 35.9475 18.1402 34.4163 18.1402H29.5197C28.8349 18.1402 28.228 17.68 28.0164 17.0003L26.5033 12.1399Z" fill="white"/>
</svg>
