<svg width="50" height="50" viewBox="0 0 50 50" fill="none" xmlns="http://www.w3.org/2000/svg">
<g clip-path="url(#clip0_4421_20)">
<path d="M29.5405 25C29.5405 27.5075 27.5077 29.5402 25.0003 29.5402C22.4928 29.5402 20.4601 27.5075 20.4601 25C20.4601 22.4926 22.4928 20.4598 25.0003 20.4598C27.5077 20.4598 29.5405 22.4926 29.5405 25Z" stroke="white"/>
<path d="M26.4067 25.0001C26.4067 25.7768 25.777 26.4064 25.0003 26.4064C24.2236 26.4064 23.594 25.7768 23.594 25.0001C23.594 24.2234 24.2236 23.5938 25.0003 23.5938C25.777 23.5938 26.4067 24.2234 26.4067 25.0001Z" stroke="white"/>
<path d="M8.38695 14.7953L8.74057 14.4418L8.38698 14.0882L0.632118 6.33342C0.456286 6.15759 0.456285 5.87241 0.632117 5.69658C0.632118 5.69658 0.632119 5.69658 0.632121 5.69657L5.69691 0.63188L5.69692 0.631876C5.87275 0.456041 6.15793 0.456041 6.33377 0.631876L14.0886 8.38674L14.4422 8.74032L14.7958 8.38671L19.029 4.15278C19.3454 3.83636 19.8865 4.06043 19.8865 4.50795V18.6845C19.8865 19.3482 19.3484 19.8861 18.6848 19.8861H4.5082C4.06076 19.8861 3.83655 19.3451 4.15302 19.0286C4.15303 19.0286 4.15304 19.0285 4.15305 19.0285L8.38695 14.7953ZM41.6133 35.2044L41.2597 35.5579L41.6133 35.9115L49.3682 43.6664C49.544 43.8422 49.544 44.1272 49.3682 44.3032C49.3682 44.3032 49.3681 44.3033 49.3681 44.3033L44.3034 49.3679C44.1275 49.5438 43.8424 49.5438 43.6665 49.3679L35.9117 41.6131L35.5581 41.2595L35.2045 41.6131L30.9713 45.847L30.9713 45.847C30.655 46.1634 30.1139 45.9394 30.1139 45.4919V31.3152C30.1139 30.6516 30.652 30.1136 31.3156 30.1136H45.4921C45.9395 30.1136 46.1638 30.6546 45.8472 30.9712L41.6133 35.2044Z" stroke="white"/>
<path d="M8.38698 35.9115L8.74057 35.5579L8.38695 35.2044L4.15305 30.9713C3.83653 30.6547 4.06075 30.1137 4.5082 30.1137H18.6848C19.3484 30.1137 19.8865 30.6517 19.8865 31.3153V45.4919C19.8865 45.9395 19.3454 46.1635 19.029 45.847L19.029 45.847L14.7958 41.6131L14.4422 41.2595L14.0886 41.6131L6.33377 49.3679C6.15793 49.5438 5.87275 49.5438 5.69692 49.3679L5.34336 49.7215L5.69691 49.3679L0.632121 44.3032C0.456285 44.1274 0.456285 43.8422 0.632121 43.6664L8.38698 35.9115ZM41.6133 14.0882L41.2597 14.4418L41.6133 14.7953L45.8472 19.0285C46.1638 19.3451 45.9395 19.8861 45.4921 19.8861H31.3156C30.652 19.8861 30.1139 19.3482 30.1139 18.6845V4.50795C30.1139 4.06043 30.655 3.83638 30.9714 4.15285L30.9714 4.15288L35.2046 8.38681L35.5582 8.74042L35.9118 8.38683L43.6666 0.631876C43.8425 0.456041 44.1276 0.456041 44.3035 0.631876L44.6565 0.27887L44.3035 0.63188L49.3682 5.69648C49.544 5.87231 49.544 6.15749 49.3682 6.33333L41.6133 14.0882Z" stroke="white"/>
</g>
<defs>
<clipPath id="clip0_4421_20">
<rect width="50" height="50" fill="white"/>
</clipPath>
</defs>
</svg>
